<svg xmlns="http://www.w3.org/2000/svg" width="26.259" height="24.448"><path data-name="Path 143" d="M26.227 13.699a3.03 3.03 0 00-2.594-2.537v-.778a3.815 3.815 0 00-3.721-3.892 3.833 3.833 0 00-3.72 3.778h.025-.025v8.434a4.751 4.751 0 01-4.592 4.888A4.753 4.753 0 017 18.706v-.731c.635 0 1.313-.45 1.313-1.712v-1.071a6.1 6.1 0 004.814-5.735v-.892h-.875l-.018-5.57A2.156 2.156 0 0010.434.9 1.312 1.312 0 008.787.082a1.271 1.271 0 00-.836 1.61 1.312 1.312 0 001.647.818 1.3 1.3 0 00.806-.738 1.289 1.289 0 01.954 1.225l.02 5.568H10.5v.9a3.417 3.417 0 01-2.519 3.193 4.065 4.065 0 01-2.407 0A3.415 3.415 0 013.06 9.465v-.9H1.751V2.992a1.289 1.289 0 01.972-1.234 1.329 1.329 0 001.709.734A1.281 1.281 0 005.177.82a1.329 1.329 0 00-1.71-.729 1.3 1.3 0 00-.773.8 2.154 2.154 0 00-1.82 2.1v5.564H0v.89a6.1 6.1 0 004.814 5.747v1.076c0 1.262.678 1.712 1.313 1.712v.731a5.617 5.617 0 005.47 5.742 5.619 5.619 0 005.47-5.742v-8.419a2.959 2.959 0 012.845-2.946 2.95 2.95 0 012.845 3.039v.777a3.007 3.007 0 00-2.594 3.393 3.053 3.053 0 003.47 2.537 3.007 3.007 0 002.594-3.393zM9.19 1.712a.428.428 0 11.438-.428.433.433 0 01-.438.428zM3.938.856a.428.428 0 11-.438.428.433.433 0 01.439-.428zM.875 9.45v-.034h1.313v.049a4.268 4.268 0 003.124 4.007 4.975 4.975 0 002.94 0 4.269 4.269 0 003.126-4.007v-.049h.875v.034a5.285 5.285 0 01-4.463 4.983 6.381 6.381 0 01-1.846.089 5.837 5.837 0 01-.6-.089A5.284 5.284 0 01.875 9.45zm5.252 7.669c-.394 0-.438-.6-.438-.856v-.908c.035 0 .071.006.106.009l.131.012c.207.018.416.03.626.03h.022c.21 0 .418-.012.624-.03l.135-.012c.035 0 .07-.005.105-.009v.908c0 .257-.044.856-.438.856zm17.068-.856a2.14 2.14 0 112.188-2.14 2.164 2.164 0 01-2.188 2.141z" fill="#fff"/></svg>