<svg xmlns="http://www.w3.org/2000/svg" width="23.969" height="24.969"><defs><clipPath id="a"><path data-name="Rectangle 390" fill="#fff" stroke="#fff" stroke-width=".3" d="M0 0h23.969v24.969H0z"/></clipPath></defs><g data-name="Mask Group 72" clip-path="url(#a)"><path d="M12.38 3.4a.4.4 0 00-.4.4v1.31l-2.1.7-3.972.79a.4.4 0 00-.136.054L1.378 9.451a.4.4 0 00-.123.549l2.8 4.394a.4.4 0 00.606.08l.931-.844v10.939a.4.4 0 00.4.4h12.776a.4.4 0 00.4-.4V13.718l.946.773a.391.391 0 00.308.086.4.4 0 00.272-.167l2.8-3.995a.4.4 0 00-.092-.552l-4.394-3.2a.4.4 0 00-.156-.068L14.881 5.8l-2.1-.7v-.961a1.6 1.6 0 10-2-1.541.4.4 0 10.8 0 .8.8 0 11.8.8zm0 2.418l1.97.658a1.988 1.988 0 01-3.939 0zm10.234 4.462L20.29 13.6l-1.265-1.035a.4.4 0 00-.653.31V24.17H6.388V12.73a.4.4 0 00-.668-.3l-1.252 1.138-2.323-3.657L6.14 7.369l3.484-.7a2.8 2.8 0 005.51 0l3.472.695zm0 0" fill="#fff" stroke="#fff" stroke-width=".3"/></g></svg>