<svg xmlns="http://www.w3.org/2000/svg" width="26.396" height="26.396"><defs><clipPath id="a"><path data-name="Rectangle 386" fill="#fff" d="M0 0h26.396v26.396H0z"/></clipPath></defs><g fill="#fff" data-name="Mask Group 71" clip-path="url(#a)"><path data-name="Path 283" d="M12.416.647a.423.423 0 00-.309-.134h-9.3a.423.423 0 00-.422.45L3.651 20.4v3.369a2.117 2.117 0 002.114 2.114H21.41a2.117 2.117 0 002.114-2.114v-5.92a2.117 2.117 0 00-1.269-1.936v-1.446a4.73 4.73 0 00-1.621-3.619 5.433 5.433 0 00-1.619-1.008.408.408 0 00-.529.226 2.114 2.114 0 01-.827.739 7.624 7.624 0 01-3.807.772 7.709 7.709 0 00-2.03.237L12.529.963a.423.423 0 00-.113-.317zm-.76.712l-.055.846h-8.29l-.055-.846zM9.147 23.346v-5.074h13.535v5.074zm-2.537 0v-.423a.423.423 0 01.423-.423h.849a.423.423 0 01.423.423v.423zm1.692-1.618a1.263 1.263 0 00-.423-.073h-.846a1.27 1.27 0 00-1.268 1.268v.423H4.496v-2.533h3.806zm-3.733 2.464h3.775a2.106 2.106 0 00.381.846h-2.96a1.271 1.271 0 01-1.2-.846zm16.841.846H10.416a1.271 1.271 0 01-1.2-.846h13.389a1.271 1.271 0 01-1.2.846zm1.2-7.611H9.22a1.271 1.271 0 011.2-.846h10.99a1.271 1.271 0 011.2.846zm-12.19-1.691v-.846h10.99v.846zm7.762-4.256a3.31 3.31 0 00.846-.712 4.878 4.878 0 011.069.73 3.83 3.83 0 011.3 2.545H10.439a1.473 1.473 0 01.341-.7 4.059 4.059 0 013.072-.922 8.371 8.371 0 004.33-.941zm-8.059 1.333a2.3 2.3 0 00-.549 1.6.425.425 0 000 .055v1.445a2.117 2.117 0 00-1.272 1.936v2.114H4.47L3.366 3.05h8.179l-.594 9.1a2.823 2.823 0 00-.828.657z"/><path data-name="Path 284" d="M18.172 19.524a5.906 5.906 0 00-2.259-.406 5.906 5.906 0 00-2.259.406c-.977.419-1.123.985-1.123 1.286s.146.867 1.123 1.286a5.906 5.906 0 002.259.406 5.906 5.906 0 002.259-.406c.977-.419 1.123-.985 1.123-1.286s-.146-.867-1.123-1.286zm-2.259 2.131c-1.574 0-2.537-.548-2.537-.846s.963-.846 2.537-.846 2.537.548 2.537.846-.964.846-2.537.846z"/><path data-name="Path 285" d="M9.996 3.896H4.919a.423.423 0 00-.423.423v2.537a.423.423 0 00.423.423h5.077a.423.423 0 00.423-.423V4.319a.423.423 0 00-.423-.423zM9.57 6.433H5.342V4.742H9.57z"/><path data-name="Path 286" d="M9.148 8.124H5.765a.423.423 0 000 .846h3.383a.423.423 0 000-.846z"/></g></svg>