<svg xmlns="http://www.w3.org/2000/svg" width="14.638" height="11"><path data-name="Path 187" d="M7.319 0a7.281 7.281 0 017.319 5.5A7.28 7.28 0 017.319 11 7.281 7.281 0 010 5.5 7.28 7.28 0 017.319 0zm0 9.778A5.993 5.993 0 0013.256 5.5a5.994 5.994 0 00-5.937-4.271A6 6 0 001.381 5.5a5.993 5.993 0 005.938 4.278zm0-1.528A2.908 2.908 0 014.275 5.5a2.908 2.908 0 013.044-2.75 2.908 2.908 0 013.044 2.75 2.908 2.908 0 01-3.044 2.75zm0-1.222A1.616 1.616 0 009.01 5.5a1.616 1.616 0 00-1.691-1.528A1.616 1.616 0 005.628 5.5a1.616 1.616 0 001.691 1.528z"/></svg>