<svg version="1.1" id="Layer_1" xmlns="http://www.w3.org/2000/svg" x="0" y="0" viewBox="0 0 17 17" xml:space="preserve"><style>.st1,.st2{fill:none}.st2{stroke:#000}</style><g id="Group_396" transform="translate(-1030 -159)" class="st0"><g id="Rectangle_187"><path class="st1" d="M2.1 2.1h5.3v5.3H2.1z" transform="translate(1030 159)"/><path class="st2" d="M2.5 2.5H7V7H2.5z" transform="translate(1030 159)"/></g><g id="Rectangle_190"><path class="st1" d="M2.1-.4h5.3v5.3H2.1z" transform="translate(1030 169)"/><path class="st2" d="M2.5 0H7v4.5H2.5z" transform="translate(1030 169)"/></g><g id="Rectangle_188"><path class="st1" d="M-.4 2.1h5.3v5.3H-.4z" transform="translate(1040 159)"/><path class="st2" d="M0 2.5h4.5V7H0z" transform="translate(1040 159)"/></g><g id="Rectangle_189"><path class="st1" d="M-.4-.4h5.3v5.3H-.4z" transform="translate(1040 169)"/><path class="st2" d="M0 0h4.5v4.5H0z" transform="translate(1040 169)"/></g></g></svg>