<svg xmlns="http://www.w3.org/2000/svg" width="25.652" height="25.469"><g data-name="Group 241"><g data-name="Group 240"><path data-name="Path 152" d="M4.649 6.893A1.565 1.565 0 002.07 5.701a1.565 1.565 0 00-1.033 2.954 1.565 1.565 0 003.065-.574 1.567 1.567 0 00.547-1.188zm-1.2.649l-.288.162.1.316a.744.744 0 11-1.453.274l-.024-.328-.326-.048a.744.744 0 11.5-1.372l.316.193.224-.295a.744.744 0 11.957 1.1z" fill="#fff"/></g></g><g data-name="Group 243"><g data-name="Group 242"><path data-name="Path 153" d="M9.025 2.288a1.441 1.441 0 00-2.354-1.113 1.44 1.44 0 00-1.874 1.517 1.44 1.44 0 001.829 2.155 1.44 1.44 0 001.919-1.358q0-.062-.005-.123a1.442 1.442 0 00.485-1.078zm-1.137.541l-.288.162.1.316a.62.62 0 01-.9.718l-.251-.147-.222.188a.611.611 0 01-.4.147.619.619 0 01-.411-1.083l.192-.17-.069-.247a.62.62 0 01.919-.7l.316.193.224-.295a.62.62 0 11.8.915z" fill="#fff"/></g></g><g data-name="Group 245"><g data-name="Group 244"><path data-name="Path 154" d="M25.652 5.288a2.124 2.124 0 00-4.229.4 1.916 1.916 0 003.748.8c0-.041 0-.082-.005-.123a1.442 1.442 0 00.486-1.077zm-1.137.541l-.288.162.1.316a.62.62 0 01-.9.718l-.251-.147-.222.188a.611.611 0 01-.4.147.619.619 0 01-.411-1.083l.192-.17-.069-.247a.62.62 0 01.919-.7l.316.193.224-.3a.62.62 0 11.8.915z" fill="#fff"/></g></g><g data-name="Group 247"><g data-name="Group 246"><path data-name="Path 155" d="M21.286 1.781a1.551 1.551 0 00-.878-.629 1.565 1.565 0 00-3.024.806 1.571 1.571 0 00-.1 1.894 1.554 1.554 0 001 .658 1.58 1.58 0 00.3.028 1.569 1.569 0 001-.367 1.567 1.567 0 001.29-.215 1.566 1.566 0 00.412-2.175zM20.723 2.8a.74.74 0 01-.313.476.746.746 0 01-.751.05l-.3-.147-.207.258a.748.748 0 01-.163.15.744.744 0 01-.88-1.2l.258-.2-.143-.3a.748.748 0 01.256-.938.739.739 0 01.417-.129.753.753 0 01.141.013.745.745 0 01.6.693l.018.37.37.02a.744.744 0 01.693.883z" fill="#fff"/></g></g><g data-name="Group 249"><g data-name="Group 248"><path data-name="Path 156" d="M21.386 10.7a1.186 1.186 0 00-.147-.568 1.173 1.173 0 00.147-.57 1.337 1.337 0 00-1.156-1.265 1.173 1.173 0 00.117-.508 1.373 1.373 0 00-1.44-1.291 1.576 1.576 0 00-.619.126 2 2 0 00-1.3-.469 2.094 2.094 0 00-.373.033 1.445 1.445 0 00-.38-.243 1.333 1.333 0 00.452-.986 1.492 1.492 0 00-1.565-1.4 1.662 1.662 0 00-1.014.334 1.732 1.732 0 00-.506-.075 1.689 1.689 0 00-.851.225 1.708 1.708 0 00-1.953-.14 1.349 1.349 0 00-.653 1.443 1.364 1.364 0 00-1.17 1.105 1.819 1.819 0 00-.6-.053 1.74 1.74 0 00-.875.293 1.6 1.6 0 00-.447-.063 1.373 1.373 0 00-1.44 1.291 1.157 1.157 0 00.007.131 1.211 1.211 0 00-.316.807 1.185 1.185 0 00.161.6 1.481 1.481 0 00-1.474 1.4 1.325 1.325 0 00.4.936 2.067 2.067 0 00-.545 1.575l2.232 12.1h12.838l2.233-12.072v-.03a2.028 2.028 0 00-.294-1.24 1.279 1.279 0 00.051-.35q0-.055-.005-.11a1.239 1.239 0 00.485-.966zM6.775 24.734L4.664 13.292a1.372 1.372 0 01.432-1.106 1.721 1.721 0 011.211-.476h.017a1.572 1.572 0 011.646 1.419v.141l1.016 11.462H6.775zm3.039 0l-1.02-11.583a1.389 1.389 0 01.46-.993 1.73 1.73 0 011.187-.453 1.57 1.57 0 011.647 1.476v11.553zm3.094 0V13.186a1.57 1.57 0 011.647-1.476 1.73 1.73 0 011.187.453 1.389 1.389 0 01.46.993l-1.02 11.578zm7.424-11.442l-2.111 11.442h-2.216l1.015-11.447v-.158a1.572 1.572 0 011.646-1.419h.017a1.721 1.721 0 011.211.476 1.372 1.372 0 01.438 1.106zm-.084-2.108l-.252.127a2.688 2.688 0 00-1.307-.336h-.017a2.544 2.544 0 00-2.06.99 2.312 2.312 0 00-.28-.312 2.591 2.591 0 00-1.778-.678 2.551 2.551 0 00-2.057.992 2.551 2.551 0 00-2.057-.992 2.591 2.591 0 00-1.778.678 2.308 2.308 0 00-.28.312 2.544 2.544 0 00-2.06-.99h-.017a2.69 2.69 0 00-1.3.331.631.631 0 01-.2-.451.71.71 0 01.744-.667.809.809 0 01.387.1l.316.172.224-.264a.725.725 0 01.178-.15l.7-.425-.806-.23a.563.563 0 01-.431-.529.533.533 0 01.209-.416l.192-.153-.069-.221a.5.5 0 01-.023-.149.591.591 0 01.62-.555.671.671 0 01.322.08l.316.173.224-.265a.768.768 0 01.529-.221 1.165 1.165 0 01.788.281 1.261 1.261 0 00.138.092l.319.173.22-.266.2-.237-.2-.223a.515.515 0 01-.132-.342.59.59 0 01.613-.555l.231.012.132-.154a.7.7 0 01.127-.116l.276-.185-.143-.266a.631.631 0 01.252-.841.8.8 0 011.034.177.615.615 0 01.04.061l.293.5.393-.445a.776.776 0 01.584-.254.809.809 0 01.387.1l.316.172.224-.264a.773.773 0 01.593-.264.71.71 0 01.744.667.66.66 0 01-.38.581l-.288.145.1.283a.617.617 0 01.033.19v.352l.356.043a.628.628 0 01.439.252l.179.252.312-.106a1.165 1.165 0 01.375-.061 1.1 1.1 0 01.886.424l.266.356.352-.289a.661.661 0 01.42-.147.591.591 0 01.62.555.551.551 0 01-.317.485l-.29.146.1.284a.46.46 0 01.021.092l.071.546.536-.267a.674.674 0 01.3-.069.591.591 0 01.62.555.515.515 0 01-.132.343l-.2.227.2.227a.512.512 0 01.131.342.551.551 0 01-.327.485z" fill="#fff"/></g></g><g data-name="Group 251"><g data-name="Group 250"><path data-name="Path 157" d="M13.892 7.057a1.2 1.2 0 00-.354.053 4.5 4.5 0 00-4.077 2.244h.82a.709.709 0 01.907-.683l.589.168-.068-.609a.719.719 0 010-.08.711.711 0 011.341-.328l.227.433.387-.3a.379.379 0 01.233-.08.383.383 0 01.383.383h.82a1.2 1.2 0 00-1.208-1.201z" fill="#fff"/></g></g><g data-name="Group 253"><g data-name="Group 252"><path data-name="Path 158" d="M16.628 8.396a1.427 1.427 0 00-1.046.46 1.395 1.395 0 00-1.853 1.317h.82a.575.575 0 01.574-.574.568.568 0 01.344.115l.4.3.215-.455a.6.6 0 011.145.256h.82a1.424 1.424 0 00-1.419-1.419z" fill="#fff"/></g></g><g data-name="Group 255"><g data-name="Group 254"><path data-name="Rectangle 133" fill="#fff" d="M5.486 12.897l.809-.134.527 3.185-.81.134z"/></g></g><g data-name="Group 257"><g data-name="Group 256"><path data-name="Rectangle 134" fill="#fff" d="M6.781 19.657l.81-.134.328 1.988-.81.134z"/></g></g><g data-name="Group 259"><g data-name="Group 258"><path data-name="Rectangle 135" fill="#fff" d="M13.731 22.204l.085-1.065.817.065-.085 1.065z"/></g></g><g data-name="Group 261"><g data-name="Group 260"><path data-name="Rectangle 136" fill="#fff" d="M14.072 18.679l.248-3.118.817.065-.248 3.118z"/></g></g><g data-name="Group 263"><g data-name="Group 262"><path data-name="Rectangle 137" fill="#fff" d="M14.419 14.691l.144-1.813.817.065-.144 1.813z"/></g></g></svg>