<svg xmlns="http://www.w3.org/2000/svg" width="24.258" height="24.258"><defs><clipPath id="a"><path data-name="Rectangle 374" fill="#fff" stroke="#fff" stroke-width=".1" d="M0 0h24.258v24.258H0z"/></clipPath></defs><g fill="#fff" data-name="Mask Group 67" clip-path="url(#a)"><g data-name="Path 276"><path d="M12.099 24.101c-4.467 0-8.666-1.74-11.824-4.898a1.203 1.203 0 01-.355-.856c0-.324.126-.628.355-.857.228-.228.533-.354.856-.354.324 0 .628.126.857.354a14.555 14.555 0 001.694 1.453l1.16-4.773h-.614a1.213 1.213 0 01-1.211-1.211c0-.668.543-1.211 1.211-1.211h.47l1.74-4.667H3.273a.44.44 0 01-.407-.28l-.745-1.92a.435.435 0 01.212-.55l4.822-2.41L6.76.73a.438.438 0 01.414-.575 4.571 4.571 0 014.567 4.566.438.438 0 01-.875 0A3.713 3.713 0 007.8 1.083l.306.92a.44.44 0 01-.219.53L3.081 4.935l.493 1.272h3.493a.437.437 0 01.41.59l-1.846 4.95h5.235V6.272a.438.438 0 01.875 0v5.477h5.098l.643-3.645a1.21 1.21 0 012.184-.484c.186.266.257.587.201.905l-.568 3.224h.67a1.212 1.212 0 01.001 2.422h-.615l1.16 4.773a14.554 14.554 0 001.695-1.453c.229-.228.533-.354.856-.354a1.207 1.207 0 011.212 1.211c0 .323-.126.628-.355.856a16.612 16.612 0 01-11.824 4.898zM1.13 18.01a.335.335 0 00-.337.337c0 .09.035.175.099.238a15.744 15.744 0 0011.206 4.642c4.233 0 8.213-1.649 11.206-4.642a.335.335 0 000-.477.335.335 0 00-.477 0 15.36 15.36 0 01-2.344 1.922.436.436 0 01-.667-.26l-1.362-5.6h-.694l1.511 6.213a.436.436 0 01-.224.492 15.209 15.209 0 01-6.95 1.678 15.2 15.2 0 01-6.948-1.678.436.436 0 01-.225-.492l1.511-6.213h-.693l-1.362 5.6a.438.438 0 01-.667.26 15.363 15.363 0 01-2.343-1.92.335.335 0 00-.239-.1zm4.726 2.242a14.142 14.142 0 006.242 1.427c2.197 0 4.296-.48 6.242-1.427l-1.48-6.082H7.337l-1.479 6.082zm-1.629-7.63a.337.337 0 000 .674H19.97a.337.337 0 000-.674H4.228zm13.498-.874h.685l.595-3.376a.338.338 0 00-.663-.117l-.617 3.493z"/><path d="M12.099 24.051c4.453 0 8.64-1.734 11.789-4.883.219-.22.34-.511.34-.821 0-.31-.121-.602-.34-.821-.22-.22-.511-.34-.822-.34-.31 0-.601.12-.82.34a14.577 14.577 0 01-1.761 1.5L19.29 14.12h.679a1.162 1.162 0 000-2.322h-.731l.58-3.282a1.163 1.163 0 00-1.145-1.364c-.552 0-1.044.397-1.143.96l-.65 3.686h-5.19V6.27a.387.387 0 00-.775 0v5.527H5.56l1.87-5.019a.387.387 0 00-.362-.522H3.539L3.018 4.91l4.846-2.423a.387.387 0 00.194-.469l-.333-.998a3.748 3.748 0 013.191 3.701.387.387 0 00.775 0A4.521 4.521 0 007.174.206a.387.387 0 00-.367.51l.41 1.23-4.86 2.43c-.18.09-.26.3-.188.486l.744 1.922a.387.387 0 00.361.247H6.51l-1.776 4.767h-.505a1.162 1.162 0 000 2.322h.678l-1.193 4.907a14.579 14.579 0 01-1.76-1.501c-.22-.22-.512-.34-.822-.34-.31 0-.602.12-.82.34-.22.22-.341.51-.341.82 0 .311.12.603.34.822A16.563 16.563 0 0012.1 24.051M1.13 17.96c.104 0 .2.04.274.113.715.715 1.501 1.36 2.336 1.916a.387.387 0 00.591-.23l1.371-5.639H6.5l-1.526 6.275a.387.387 0 00.199.435 15.158 15.158 0 006.926 1.673c2.412 0 4.807-.579 6.926-1.673a.387.387 0 00.199-.435l-1.526-6.275h.797l1.37 5.638a.387.387 0 00.591.23 15.31 15.31 0 002.337-1.915.384.384 0 01.547 0 .384.384 0 010 .548 15.794 15.794 0 01-11.24 4.656A15.794 15.794 0 01.858 18.62a.385.385 0 010-.548.384.384 0 01.273-.113m6.166-3.84H16.9l1.498 6.159a14.185 14.185 0 01-6.3 1.45c-2.22 0-4.337-.488-6.3-1.45l1.498-6.159m-3.069-1.548H19.97a.388.388 0 010 .774H4.228a.387.387 0 010-.774m14.446-4.645a.388.388 0 01.382.454l-.603 3.417h-.786l.626-3.552a.388.388 0 01.381-.32M12.1 24.152c-4.48 0-8.692-1.744-11.86-4.912a1.253 1.253 0 01-.369-.892c0-.337.131-.654.37-.892.238-.238.554-.37.891-.37.337 0 .654.132.892.37a14.51 14.51 0 001.628 1.403L4.78 14.22h-.551a1.263 1.263 0 01-1.261-1.261c0-.696.566-1.261 1.261-1.261h.436l1.7-4.568h-3.09a.49.49 0 01-.455-.311l-.745-1.922a.485.485 0 01.237-.611l4.783-2.392L6.712.747a.488.488 0 01.462-.64 4.621 4.621 0 014.617 4.615.488.488 0 01-.975 0 3.664 3.664 0 00-2.943-3.574l.28.84a.49.49 0 01-.245.59L3.144 4.96l.464 1.197h3.459a.487.487 0 01.456.657l-1.82 4.884h5.113V6.27a.488.488 0 01.975 0v5.427h5.006l.635-3.603a1.26 1.26 0 012.275-.504c.194.276.268.61.21.942l-.559 3.165h.612a1.262 1.262 0 010 2.522h-.552l1.128 4.638a14.508 14.508 0 001.629-1.403c.238-.238.554-.37.891-.37.337 0 .654.132.892.37.239.238.37.555.37.892 0 .337-.131.653-.37.892a16.662 16.662 0 01-11.86 4.912zM1.13 18.06a.285.285 0 00-.287.287c0 .077.03.149.084.203a15.694 15.694 0 0011.17 4.627c4.22 0 8.188-1.643 11.171-4.627a.285.285 0 000-.406.285.285 0 00-.405 0 15.41 15.41 0 01-2.352 1.928.486.486 0 01-.744-.29l-1.352-5.562h-.591l1.496 6.151a.486.486 0 01-.25.548 15.259 15.259 0 01-6.972 1.684c-2.428 0-4.84-.582-6.972-1.684a.486.486 0 01-.25-.548l1.496-6.15h-.591l-1.353 5.56a.488.488 0 01-.743.291 15.413 15.413 0 01-2.352-1.928.285.285 0 00-.203-.084zm4.784 2.164A14.092 14.092 0 0012.1 21.63c2.175 0 4.255-.473 6.184-1.405l-1.46-6.004h-9.45l-1.46 6.004zm-1.687-7.552a.287.287 0 000 .574H19.97a.287.287 0 000-.574H4.228zm13.558-.974h.583l.588-3.334a.288.288 0 00-.565-.1l-.606 3.434z"/></g><g data-name="Ellipse 32" transform="translate(7.304 4.077)" stroke="#fff" stroke-width=".1"><circle cx=".387" cy=".387" r=".387" stroke="none"/><circle cx=".387" cy=".387" r=".437" fill="none"/></g></g></svg>