<svg xmlns="http://www.w3.org/2000/svg" width="38" height="38"><g data-name="Group 435" opacity=".54"><path data-name="Path 227" d="M0 0h38v38H0z" fill="none"/><path data-name="Path 228" d="M31.667 4.75a1.584 1.584 0 011.583 1.583v2.782l-3.167 3.167V7.917H7.917v12.825l6.333-6.334 6.853 6.854-2.24 2.237-4.613-4.61-6.333 6.332v4.862h17.798l2.1-2.106 2.106 2.1h.158v-4.36l3.171-3.167v9.117a1.584 1.584 0 01-1.583 1.583H6.333a1.588 1.588 0 01-1.583-1.583V6.333A1.584 1.584 0 016.333 4.75zm2.815 7.613l2.239 2.239-12.315 12.315h-2.242v-2.236l12.318-12.318zm-9.94-1.279a2.375 2.375 0 11-2.375 2.375 2.376 2.376 0 012.375-2.376z"/></g></svg>