<svg xmlns="http://www.w3.org/2000/svg" width="26.115" height="25.115"><defs><clipPath id="a"><path data-name="Rectangle 384" fill="#fff" d="M0 0h26.115v25.115H0z"/></clipPath></defs><g data-name="Mask Group 70"><g data-name="Group 897"><g data-name="Group 896" fill="#fff" clip-path="url(#a)"><path data-name="Path 281" d="M9.288 9.253a8.926 8.926 0 00-3.827 3.567.526.526 0 10.91.527 7.888 7.888 0 013.378-3.154.526.526 0 00-.461-.945z"/><path data-name="Path 282" d="M25.295 16.763h-1.078a11.043 11.043 0 00-9.571-10.41 1.577 1.577 0 10-2.887 0 11.043 11.043 0 00-9.575 10.41H1.11a.525.525 0 00-.526.526v.527a3.984 3.984 0 00.672 2.217 2.1 2.1 0 001.75.937H23.4a2.1 2.1 0 001.75-.937 3.986 3.986 0 00.671-2.217v-.527a.525.525 0 00-.526-.526zM13.202 5.197a.526.526 0 11-.526.526.526.526 0 01.526-.526zm0 2.1a9.994 9.994 0 019.963 9.464H3.24A9.994 9.994 0 0113.202 7.3zm11.567 10.519a2.936 2.936 0 01-.495 1.629 1.05 1.05 0 01-.875.468H3.005a1.05 1.05 0 01-.875-.469 2.937 2.937 0 01-.494-1.633h23.133z"/></g></g></g></svg>