<svg xmlns="http://www.w3.org/2000/svg" width="25.242" height="25.242"><g data-name="Path 147" fill="#fff"><path d="M18.044 25.142H7.198a3.108 3.108 0 01-3.105-3.104V13.21H2.712A2.615 2.615 0 01.1 10.6a2.615 2.615 0 012.612-2.612.84.84 0 00.84-.84V5.67a.64.64 0 011.278 0v1.479a2.12 2.12 0 01-2.118 2.118 1.334 1.334 0 000 2.665h1.925l.015-.004a4.153 4.153 0 002.892-3.931v-2.82C7.544 2.377 9.822.1 12.621.1c2.8 0 5.077 2.277 5.077 5.077v2.82c0 1.783 1.19 3.4 2.892 3.93l.015.005h1.925a1.334 1.334 0 00.001-2.665 2.121 2.121 0 01-2.119-2.118v-1.48a.64.64 0 011.28 0v1.48c0 .463.376.84.839.84a2.615 2.615 0 012.611 2.61 2.615 2.615 0 01-2.611 2.612h-1.382v8.827a3.108 3.108 0 01-3.105 3.104zM8.817 8.282l-.006.092a5.37 5.37 0 01-1.076 2.873 5.379 5.379 0 01-2.3 1.76l-.063.025v9.006c0 1.006.82 1.825 1.826 1.825h10.846a1.828 1.828 0 001.826-1.825v-9.006l-.063-.025a5.378 5.378 0 01-2.3-1.76 5.37 5.37 0 01-1.075-2.873l-.007-.093H8.817zm3.804-6.903a3.802 3.802 0 00-3.797 3.798v1.825h7.595V5.177a3.802 3.802 0 00-3.798-3.798z"/><path d="M12.621.2a4.982 4.982 0 00-4.977 4.977v2.82a4.254 4.254 0 01-2.962 4.026l-.03.01h-1.94c-.79 0-1.433-.643-1.433-1.433s.643-1.433 1.433-1.433A2.02 2.02 0 004.73 7.15V5.67a.54.54 0 00-1.079 0v1.48a.94.94 0 01-.94.94A2.514 2.514 0 00.2 10.598a2.514 2.514 0 002.512 2.512h1.481v8.927a3.008 3.008 0 003.005 3.004h10.846a3.008 3.008 0 003.005-3.004V13.11h1.482a2.514 2.514 0 002.511-2.511 2.514 2.514 0 00-2.511-2.512.94.94 0 01-.94-.94V5.67a.54.54 0 00-1.079 0v1.479a2.02 2.02 0 002.019 2.018 1.433 1.433 0 010 2.865H20.59l-.03-.009a4.254 4.254 0 01-2.962-4.026v-2.82A4.982 4.982 0 0012.62.2m3.898 6.902H8.724V5.177a3.902 3.902 0 013.897-3.898 3.902 3.902 0 013.898 3.898v1.925m1.525 16.861H7.198a1.928 1.928 0 01-1.926-1.925v-9.074l.126-.05a5.28 5.28 0 002.257-1.727 5.271 5.271 0 001.056-2.82l.013-.186h7.795l.012.187a5.27 5.27 0 001.056 2.819 5.278 5.278 0 002.257 1.727l.126.05v9.074a1.928 1.928 0 01-1.926 1.925M12.621 0a5.182 5.182 0 015.177 5.177v2.82a4.036 4.036 0 002.822 3.835h1.91c.68 0 1.233-.553 1.233-1.232 0-.68-.553-1.233-1.232-1.233a2.221 2.221 0 01-2.219-2.218v-1.48a.74.74 0 011.48 0v1.48c0 .407.33.74.739.74a2.715 2.715 0 012.711 2.71 2.715 2.715 0 01-2.711 2.712h-1.282v8.727a3.208 3.208 0 01-3.205 3.204H7.198a3.208 3.208 0 01-3.205-3.204V13.31H2.712A2.715 2.715 0 010 10.6a2.715 2.715 0 012.712-2.712.74.74 0 00.74-.74V5.67a.74.74 0 011.478 0v1.479a2.221 2.221 0 01-2.218 2.218 1.234 1.234 0 000 2.465h1.91a4.036 4.036 0 002.822-3.835v-2.82A5.182 5.182 0 0112.621 0zm3.698 6.902V5.177a3.702 3.702 0 00-3.698-3.698 3.702 3.702 0 00-3.697 3.698v1.725h7.395zm1.725 16.861c.952 0 1.726-.774 1.726-1.725V13.1a5.449 5.449 0 01-2.343-1.793 5.45 5.45 0 01-1.095-2.926H8.91a5.45 5.45 0 01-1.095 2.926A5.45 5.45 0 015.472 13.1v8.938c0 .951.775 1.725 1.726 1.725h10.846z" fill="#ccac64"/></g></svg>