<svg xmlns="http://www.w3.org/2000/svg" width="19.541" height="19.541"><g data-name="Group 468" opacity=".7"><path data-name="Path 231" d="M0 0h19.541v19.541H0z" fill="none"/><path data-name="Path 232" d="M6.514 3.257h10.585v1.629H6.514zm-2.85 2.036a1.221 1.221 0 111.222-1.222 1.221 1.221 0 01-1.222 1.222zm0 5.7a1.221 1.221 0 111.221-1.221 1.221 1.221 0 01-1.221 1.22zm0 5.618a1.221 1.221 0 111.221-1.221 1.221 1.221 0 01-1.221 1.22zm2.85-7.654h10.585v1.628H6.514zm0 5.7h10.585v1.628H6.514z"/></g></svg>