<svg xmlns="http://www.w3.org/2000/svg" width="24.832" height="24.832"><defs><clipPath id="a"><path data-name="Rectangle 381" fill="#fff" stroke="#fff" stroke-width=".1" d="M0 0h24.832v24.832H0z"/></clipPath></defs><g data-name="Mask Group 69" clip-path="url(#a)"><g data-name="Group 893"><g data-name="Group 892"><g data-name="Path 279" fill="#fff"><path d="M15.965 24.881c-.911 0-1.652-.74-1.652-1.652v-3.554H8.004v3.554c0 .911-.74 1.652-1.652 1.652A1.654 1.654 0 014.7 23.23v-.15c-.226.131-.484.2-.75.2-.912 0-1.653-.74-1.653-1.652v-1.952H1.146c-.27 0-.451-.181-.451-.45v-1.603c0-.27.181-.45.45-.45h1.152V15.22c0-.91.741-1.652 1.652-1.652.267 0 .525.069.751.2v-.15c0-.911.741-1.652 1.652-1.652.911 0 1.652.741 1.652 1.652v3.555h6.309v-3.555a1.653 1.653 0 013.304 0v.15c.226-.131.484-.2.75-.2.912 0 1.653.741 1.653 1.652v1.953h1.151c.27 0 .45.18.45.45v1.602c0 .27-.18.45-.45.45H20.02v1.953c0 .911-.741 1.652-1.652 1.652-.267 0-.525-.069-.751-.2v.15c0 .911-.741 1.652-1.652 1.652zm0-12.015a.752.752 0 00-.751.751v9.612a.752.752 0 001.502 0v-9.612a.752.752 0 00-.751-.751zm-9.613 0a.752.752 0 00-.75.751v9.612a.752.752 0 001.501 0v-9.612a.752.752 0 00-.75-.751zm12.016 1.602a.752.752 0 00-.751.751v6.408a.752.752 0 001.502 0V15.22a.752.752 0 00-.751-.751zm-14.419 0a.752.752 0 00-.75.751v6.408a.752.752 0 001.501 0V15.22a.752.752 0 00-.75-.751zm16.07 4.306h.702v-.701h-.701v.7zm-12.015 0h6.309v-.701H8.004v.7zm-6.408 0h.701v-.701h-.701v.7z"/><path d="M6.352 12.015c-.88 0-1.602.72-1.602 1.602v.24c-.24-.16-.52-.24-.8-.24-.882 0-1.603.72-1.603 1.602v2.003H1.146c-.24 0-.401.16-.401.4v1.602c0 .24.16.4.4.4h1.202v2.003c0 .881.721 1.602 1.602 1.602.28 0 .56-.08.801-.24v.24c0 .882.721 1.602 1.602 1.602.881 0 1.602-.72 1.602-1.602v-3.604h6.409v3.604c0 .882.72 1.602 1.602 1.602.88 0 1.602-.72 1.602-1.602v-.24c.24.16.52.24.8.24.882 0 1.603-.72 1.603-1.602v-2.002h1.201c.24 0 .4-.16.4-.4v-1.603c0-.24-.16-.4-.4-.4H19.97v-2.003c0-.881-.721-1.602-1.602-1.602-.28 0-.561.08-.801.24v-.24c0-.881-.721-1.602-1.602-1.602-.882 0-1.602.72-1.602 1.602v3.605H7.954v-3.605c0-.881-.72-1.602-1.602-1.602m0 12.015a.803.803 0 01-.8-.8v-9.613c0-.44.36-.801.8-.801.44 0 .801.36.801.801v9.612c0 .44-.36.801-.8.801m9.612 0a.803.803 0 01-.801-.8v-9.613c0-.44.36-.801.8-.801.441 0 .802.36.802.801v9.612c0 .44-.36.801-.801.801M3.949 22.428a.803.803 0 01-.8-.8v-6.409c0-.44.36-.801.8-.801.44 0 .801.36.801.801v6.408c0 .44-.36.801-.8.801m14.418 0a.803.803 0 01-.801-.8v-6.409c0-.44.36-.801.8-.801.441 0 .802.36.802.801v6.408c0 .44-.36.801-.801.801m-16.02-3.604h-.802v-.801h.801v.8m12.016 0H7.954v-.8h6.409v.8m6.408 0h-.801v-.8h.8v.8M6.353 11.916c.939 0 1.702.763 1.702 1.702v3.505h6.209v-3.505c0-.939.763-1.702 1.702-1.702.938 0 1.702.763 1.702 1.702v.066c.215-.109.454-.166.7-.166.94 0 1.703.764 1.703 1.702v1.903h1.101c.295 0 .5.205.5.5v1.602c0 .295-.205.5-.5.5H20.07v1.903c0 .939-.764 1.702-1.702 1.702-.247 0-.486-.057-.701-.166v.066c0 .939-.764 1.702-1.702 1.702a1.704 1.704 0 01-1.702-1.702v-3.504H8.054v3.504c0 .939-.763 1.702-1.702 1.702A1.704 1.704 0 014.65 23.23v-.066c-.215.11-.454.166-.7.166a1.704 1.704 0 01-1.703-1.702v-1.902H1.146a.479.479 0 01-.501-.5v-1.603c0-.295.206-.5.5-.5h1.102V15.22c0-.938.764-1.702 1.702-1.702.247 0 .486.057.701.166v-.066c0-.939.764-1.702 1.702-1.702zm0 12.015a.702.702 0 00.701-.7v-9.613a.702.702 0 00-1.402 0v9.612c0 .387.315.701.701.701zm9.613 0a.702.702 0 00.7-.7v-9.613a.702.702 0 00-1.401 0v9.612c0 .387.314.701.7.701zM3.949 22.328a.702.702 0 00.701-.7v-6.409a.702.702 0 00-1.402 0v6.408c0 .387.315.701.701.701zm14.419 0a.702.702 0 00.7-.7v-6.409a.702.702 0 00-1.401 0v6.408c0 .387.314.701.7.701zm-16.12-4.205h-.602v.6h.601v-.6zm12.015 0H8.054v.6h6.209v-.6zm6.408 0h-.601v.6h.6v-.6z"/></g></g></g><g data-name="Group 895"><g data-name="Group 894"><g data-name="Path 280" fill="#fff"><path d="M19.97 12.867a1.655 1.655 0 01-1.652-1.653V7.66h-6.309v3.554c0 .911-.74 1.653-1.652 1.653-.91 0-1.652-.742-1.652-1.653v-.15c-.226.131-.484.2-.75.2a1.654 1.654 0 01-1.653-1.652V7.66H5.15c-.269 0-.45-.181-.45-.45V5.606c0-.27.181-.45.45-.45h1.152V3.204c0-.91.741-1.652 1.652-1.652.267 0 .525.07.751.2v-.15c0-.91.741-1.652 1.652-1.652.911 0 1.652.741 1.652 1.652v3.555h6.309V1.602c0-.91.74-1.652 1.652-1.652.91 0 1.652.741 1.652 1.652v.15c.226-.13.484-.2.75-.2.912 0 1.653.741 1.653 1.652v1.953h1.151c.27 0 .45.18.45.45V7.21c0 .27-.18.45-.45.45h-1.151v1.953c0 .911-.741 1.652-1.652 1.652-.267 0-.525-.069-.751-.2v.15c0 .911-.741 1.653-1.652 1.653zm0-12.016a.752.752 0 00-.751.751v9.612a.752.752 0 001.502 0V1.602a.752.752 0 00-.751-.751zm-9.613 0a.752.752 0 00-.75.751v9.612a.752.752 0 001.501 0V1.602a.752.752 0 00-.75-.751zm12.016 1.602a.752.752 0 00-.751.751v6.408a.752.752 0 001.502 0V3.204a.752.752 0 00-.751-.75zm-14.419 0a.752.752 0 00-.75.751v6.408a.752.752 0 001.501 0V3.204a.752.752 0 00-.75-.75zm16.07 4.306h.702v-.701h-.701v.7zm-12.015 0h6.309v-.701h-6.309v.7zm-6.408 0h.701v-.701h-.701v.7z"/><path d="M10.357 0c-.88 0-1.602.72-1.602 1.602v.24c-.24-.16-.52-.24-.8-.24-.882 0-1.603.721-1.603 1.602v2.003H5.15c-.24 0-.4.16-.4.4V7.21c0 .24.16.4.4.4h1.202v2.003c0 .882.721 1.602 1.602 1.602.28 0 .56-.08.801-.24v.24c0 .882.721 1.603 1.602 1.603.881 0 1.602-.721 1.602-1.603V7.61h6.409v3.604c0 .882.72 1.603 1.602 1.603.88 0 1.602-.721 1.602-1.603v-.24c.24.16.52.24.8.24.882 0 1.603-.72 1.603-1.602V7.61h1.201c.24 0 .4-.16.4-.4V5.606c0-.24-.16-.4-.4-.4h-1.201V3.204c0-.881-.721-1.602-1.602-1.602-.28 0-.561.08-.801.24v-.24C21.572.721 20.85 0 19.97 0c-.882 0-1.602.72-1.602 1.602v3.605h-6.409V1.602A1.605 1.605 0 0010.357 0m0 12.015a.803.803 0 01-.8-.8V1.601c0-.44.36-.801.8-.801.44 0 .801.36.801.801v9.612c0 .441-.36.801-.8.801m9.612 0a.803.803 0 01-.801-.8V1.601c0-.44.36-.801.8-.801.441 0 .802.36.802.801v9.612c0 .441-.36.801-.801.801M7.954 10.413a.803.803 0 01-.8-.8v-6.41c0-.44.36-.8.8-.8.44 0 .801.36.801.8v6.408c0 .441-.36.801-.8.801m14.418 0a.803.803 0 01-.801-.8V3.203c0-.44.36-.8.8-.8.441 0 .802.36.802.8v6.408c0 .441-.36.801-.801.801M6.352 6.81h-.801v-.801h.801v.8m12.016 0h-6.409v-.8h6.409v.8m6.408 0h-.801v-.8h.8v.8M10.358-.1c.939 0 1.702.764 1.702 1.702v3.505h6.209V1.602c0-.938.763-1.702 1.702-1.702.938 0 1.702.764 1.702 1.702v.066c.215-.109.454-.166.7-.166.94 0 1.703.764 1.703 1.702v1.903h1.101c.295 0 .5.206.5.5V7.21c0 .295-.205.5-.5.5h-1.101v1.903c0 .939-.764 1.702-1.702 1.702-.247 0-.486-.057-.701-.166v.066c0 .939-.764 1.703-1.702 1.703a1.704 1.704 0 01-1.702-1.703V7.71H12.06v3.504c0 .939-.763 1.703-1.702 1.703a1.704 1.704 0 01-1.702-1.703v-.066c-.215.11-.454.166-.7.166a1.704 1.704 0 01-1.703-1.702V7.71H5.15a.479.479 0 01-.5-.5V5.606c0-.294.206-.5.5-.5h1.102V3.204c0-.938.764-1.702 1.702-1.702.247 0 .486.057.701.166v-.066C8.655.664 9.42-.1 10.357-.1zm0 12.015a.702.702 0 00.701-.7V1.601a.702.702 0 00-1.402 0v9.612c0 .387.315.701.701.701zm9.613 0a.702.702 0 00.7-.7V1.601a.702.702 0 00-1.401 0v9.612c0 .387.314.701.7.701zM7.954 10.313a.702.702 0 00.701-.7v-6.41a.702.702 0 00-1.402 0v6.408c0 .387.315.701.701.701zm14.419 0a.702.702 0 00.7-.7v-6.41a.702.702 0 00-1.401 0v6.408c0 .387.314.701.7.701zM6.252 6.108h-.601v.6h.601v-.6zm12.016 0h-6.209v.6h6.209v-.6zm6.408 0h-.601v.6h.6v-.6z"/></g></g></g></g></svg>