<svg xmlns="http://www.w3.org/2000/svg" xmlns:xlink="http://www.w3.org/1999/xlink" width="24.832" height="24.832" viewBox="0 0 24.832 24.832">
  <defs>
    <clipPath id="clip-path">
      <rect id="Rectangle_381" data-name="Rectangle 381" width="24.832" height="24.832" fill="#fff" stroke="#fff" stroke-width="0.1"/>
    </clipPath>
  </defs>
  <g id="Mask_Group_69" data-name="Mask Group 69" clip-path="url(#clip-path)">
    <g id="dumbbell" transform="translate(0.745)">
      <g id="Group_893" data-name="Group 893" transform="translate(0 12.015)">
        <g id="Group_892" data-name="Group 892">
          <g id="Path_279" data-name="Path 279" transform="translate(0 -11.613)" fill="#fff">
            <path d="M 15.21963214874268 24.47943687438965 C 14.30868244171143 24.47943687438965 13.56756210327148 23.73831748962402 13.56756210327148 22.82736778259277 L 13.56756210327148 19.27271842956543 L 7.259302139282227 19.27271842956543 L 7.259302139282227 22.82736778259277 C 7.259302139282227 23.73831748962402 6.518182277679443 24.47943687438965 5.607232093811035 24.47943687438965 C 4.696281909942627 24.47943687438965 3.955162048339844 23.73831748962402 3.955162048339844 22.82736778259277 L 3.955162048339844 22.67706680297852 C 3.72891640663147 22.80838012695312 3.471164464950562 22.87736701965332 3.204132080078125 22.87736701965332 C 2.293182134628296 22.87736701965332 1.552062153816223 22.1362476348877 1.552062153816223 21.22529792785645 L 1.552062153816223 19.27271842956543 L 0.4005121290683746 19.27271842956543 C 0.1310521215200424 19.27271842956543 -0.04999787732958794 19.09166717529297 -0.04999787732958794 18.82219696044922 L -0.04999787732958794 17.22013854980469 C -0.04999787732958794 16.95066833496094 0.1310521215200424 16.76961708068848 0.4005121290683746 16.76961708068848 L 1.552062153816223 16.76961708068848 L 1.552062153816223 14.81703758239746 C 1.552062153816223 13.90608787536621 2.293182134628296 13.16496753692627 3.204132080078125 13.16496753692627 C 3.471164464950562 13.16496753692627 3.72891640663147 13.23395538330078 3.955162048339844 13.36526870727539 L 3.955162048339844 13.21496772766113 C 3.955162048339844 12.30401802062988 4.696281909942627 11.56289768218994 5.607232093811035 11.56289768218994 C 6.518182277679443 11.56289768218994 7.259302139282227 12.30401802062988 7.259302139282227 13.21496772766113 L 7.259302139282227 16.76961708068848 L 13.56756210327148 16.76961708068848 L 13.56756210327148 13.21496772766113 C 13.56756210327148 12.30401802062988 14.30868244171143 11.56289768218994 15.21963214874268 11.56289768218994 C 16.13058280944824 11.56289768218994 16.87170219421387 12.30401802062988 16.87170219421387 13.21496772766113 L 16.87170219421387 13.36526870727539 C 17.09794807434082 13.23395538330078 17.35569953918457 13.16496753692627 17.62273216247559 13.16496753692627 C 18.53368186950684 13.16496753692627 19.27480125427246 13.90608787536621 19.27480125427246 14.81703758239746 L 19.27480125427246 16.76961708068848 L 20.42635154724121 16.76961708068848 C 20.6958122253418 16.76961708068848 20.87686157226562 16.95066833496094 20.87686157226562 17.22013854980469 L 20.87686157226562 18.82219696044922 C 20.87686157226562 19.09166717529297 20.6958122253418 19.27271842956543 20.42635154724121 19.27271842956543 L 19.27480125427246 19.27271842956543 L 19.27480125427246 21.22529792785645 C 19.27480125427246 22.1362476348877 18.53368186950684 22.87736701965332 17.62273216247559 22.87736701965332 C 17.35569953918457 22.87736701965332 17.09794807434082 22.80838012695312 16.87170219421387 22.67706680297852 L 16.87170219421387 22.82736778259277 C 16.87170219421387 23.73831748962402 16.13058280944824 24.47943687438965 15.21963214874268 24.47943687438965 Z M 15.21963214874268 12.46393775939941 C 14.80551242828369 12.46393775939941 14.46860218048096 12.80084800720215 14.46860218048096 13.21496772766113 L 14.46860218048096 22.82736778259277 C 14.46860218048096 23.24148750305176 14.80551242828369 23.57839775085449 15.21963214874268 23.57839775085449 C 15.63375186920166 23.57839775085449 15.97066211700439 23.24148750305176 15.97066211700439 22.82736778259277 L 15.97066211700439 13.21496772766113 C 15.97066211700439 12.80084800720215 15.63375186920166 12.46393775939941 15.21963214874268 12.46393775939941 Z M 5.607232093811035 12.46393775939941 C 5.193111896514893 12.46393775939941 4.856202125549316 12.80084800720215 4.856202125549316 13.21496772766113 L 4.856202125549316 22.82736778259277 C 4.856202125549316 23.24148750305176 5.193111896514893 23.57839775085449 5.607232093811035 23.57839775085449 C 6.021352291107178 23.57839775085449 6.358262062072754 23.24148750305176 6.358262062072754 22.82736778259277 L 6.358262062072754 13.21496772766113 C 6.358262062072754 12.80084800720215 6.021352291107178 12.46393775939941 5.607232093811035 12.46393775939941 Z M 17.62273216247559 14.06600761413574 C 17.2086124420166 14.06600761413574 16.87170219421387 14.40291786193848 16.87170219421387 14.81703758239746 L 16.87170219421387 21.22529792785645 C 16.87170219421387 21.63941764831543 17.2086124420166 21.97633743286133 17.62273216247559 21.97633743286133 C 18.03685188293457 21.97633743286133 18.3737621307373 21.63941764831543 18.3737621307373 21.22529792785645 L 18.3737621307373 14.81703758239746 C 18.3737621307373 14.40291786193848 18.03685188293457 14.06600761413574 17.62273216247559 14.06600761413574 Z M 3.204132080078125 14.06600761413574 C 2.790012121200562 14.06600761413574 2.453102111816406 14.40291786193848 2.453102111816406 14.81703758239746 L 2.453102111816406 21.22529792785645 C 2.453102111816406 21.63941764831543 2.790012121200562 21.97633743286133 3.204132080078125 21.97633743286133 C 3.618252038955688 21.97633743286133 3.955162048339844 21.63941764831543 3.955162048339844 21.22529792785645 L 3.955162048339844 14.81703758239746 C 3.955162048339844 14.40291786193848 3.618252038955688 14.06600761413574 3.204132080078125 14.06600761413574 Z M 19.27480125427246 18.3716869354248 L 19.97583198547363 18.3716869354248 L 19.97583198547363 17.6706485748291 L 19.27480125427246 17.6706485748291 L 19.27480125427246 18.3716869354248 Z M 7.259302139282227 18.3716869354248 L 13.56756210327148 18.3716869354248 L 13.56756210327148 17.6706485748291 L 7.259302139282227 17.6706485748291 L 7.259302139282227 18.3716869354248 Z M 0.8510321378707886 18.3716869354248 L 1.552062153816223 18.3716869354248 L 1.552062153816223 17.6706485748291 L 0.8510321378707886 17.6706485748291 L 0.8510321378707886 18.3716869354248 Z" stroke="none"/>
            <path d="M 5.607232093811035 11.6128978729248 C 4.726091384887695 11.6128978729248 4.005161285400391 12.33382797241211 4.005161285400391 13.21496772766113 L 4.005161285400391 13.45527839660645 C 3.764852523803711 13.29506683349609 3.484491348266602 13.21496772766113 3.204132080078125 13.21496772766113 C 2.322992324829102 13.21496772766113 1.602062225341797 13.93589782714844 1.602062225341797 14.81703758239746 L 1.602062225341797 16.81961822509766 L 0.4005126953125 16.81961822509766 C 0.1602020263671875 16.81961822509766 1.9073486328125e-06 16.97982788085938 1.9073486328125e-06 17.22013854980469 L 1.9073486328125e-06 18.82219696044922 C 1.9073486328125e-06 19.06250762939453 0.1602020263671875 19.22271728515625 0.4005126953125 19.22271728515625 L 1.602062225341797 19.22271728515625 L 1.602062225341797 21.22529792785645 C 1.602062225341797 22.10643768310547 2.322992324829102 22.82736778259277 3.204132080078125 22.82736778259277 C 3.484491348266602 22.82736778259277 3.764852523803711 22.74726867675781 4.005161285400391 22.58705902099609 L 4.005161285400391 22.82736778259277 C 4.005161285400391 23.7085075378418 4.726091384887695 24.4294376373291 5.607232093811035 24.4294376373291 C 6.488371849060059 24.4294376373291 7.209301948547363 23.7085075378418 7.209301948547363 22.82736778259277 L 7.209301948547363 19.22271728515625 L 13.61756229400635 19.22271728515625 L 13.61756229400635 22.82736778259277 C 13.61756229400635 23.7085075378418 14.33849143981934 24.4294376373291 15.21963214874268 24.4294376373291 C 16.10076141357422 24.4294376373291 16.82170104980469 23.7085075378418 16.82170104980469 22.82736778259277 L 16.82170104980469 22.58705902099609 C 17.06201171875 22.74726867675781 17.34237289428711 22.82736778259277 17.62273216247559 22.82736778259277 C 18.50387191772461 22.82736778259277 19.22480201721191 22.10643768310547 19.22480201721191 21.22529792785645 L 19.22480201721191 19.22271728515625 L 20.42635154724121 19.22271728515625 C 20.66665267944336 19.22271728515625 20.82686233520508 19.06250762939453 20.82686233520508 18.82219696044922 L 20.82686233520508 17.22013854980469 C 20.82686233520508 16.97982788085938 20.66665267944336 16.81961822509766 20.42635154724121 16.81961822509766 L 19.22480201721191 16.81961822509766 L 19.22480201721191 14.81703758239746 C 19.22480201721191 13.93589782714844 18.50387191772461 13.21496772766113 17.62273216247559 13.21496772766113 C 17.34237289428711 13.21496772766113 17.06201171875 13.29506683349609 16.82170104980469 13.45527839660645 L 16.82170104980469 13.21496772766113 C 16.82170104980469 12.33382797241211 16.10076141357422 11.6128978729248 15.21963214874268 11.6128978729248 C 14.33849143981934 11.6128978729248 13.61756229400635 12.33382797241211 13.61756229400635 13.21496772766113 L 13.61756229400635 16.81961822509766 L 7.209301948547363 16.81961822509766 L 7.209301948547363 13.21496772766113 C 7.209301948547363 12.33382797241211 6.488371849060059 11.6128978729248 5.607232093811035 11.6128978729248 M 5.607232093811035 23.62839889526367 C 5.166662216186523 23.62839889526367 4.806201934814453 23.26793670654297 4.806201934814453 22.82736778259277 L 4.806201934814453 13.21496772766113 C 4.806201934814453 12.7743968963623 5.166662216186523 12.41393852233887 5.607232093811035 12.41393852233887 C 6.047801971435547 12.41393852233887 6.408262252807617 12.7743968963623 6.408262252807617 13.21496772766113 L 6.408262252807617 22.82736778259277 C 6.408262252807617 23.26793670654297 6.047801971435547 23.62839889526367 5.607232093811035 23.62839889526367 M 15.21963214874268 23.62839889526367 C 14.77906227111816 23.62839889526367 14.41860198974609 23.26793670654297 14.41860198974609 22.82736778259277 L 14.41860198974609 13.21496772766113 C 14.41860198974609 12.7743968963623 14.77906227111816 12.41393852233887 15.21963214874268 12.41393852233887 C 15.66020202636719 12.41393852233887 16.02066230773926 12.7743968963623 16.02066230773926 13.21496772766113 L 16.02066230773926 22.82736778259277 C 16.02066230773926 23.26793670654297 15.66020202636719 23.62839889526367 15.21963214874268 23.62839889526367 M 3.204132080078125 22.02632904052734 C 2.763561248779297 22.02632904052734 2.403102874755859 21.66586685180664 2.403102874755859 21.22529792785645 L 2.403102874755859 14.81703758239746 C 2.403102874755859 14.37646865844727 2.763561248779297 14.0159969329834 3.204132080078125 14.0159969329834 C 3.644702911376953 14.0159969329834 4.005161285400391 14.37646865844727 4.005161285400391 14.81703758239746 L 4.005161285400391 21.22529792785645 C 4.005161285400391 21.66586685180664 3.644702911376953 22.02632904052734 3.204132080078125 22.02632904052734 M 17.62273216247559 22.02632904052734 C 17.18216133117676 22.02632904052734 16.82170104980469 21.66586685180664 16.82170104980469 21.22529792785645 L 16.82170104980469 14.81703758239746 C 16.82170104980469 14.37646865844727 17.18216133117676 14.0159969329834 17.62273216247559 14.0159969329834 C 18.06329154968262 14.0159969329834 18.42376136779785 14.37646865844727 18.42376136779785 14.81703758239746 L 18.42376136779785 21.22529792785645 C 18.42376136779785 21.66586685180664 18.06329154968262 22.02632904052734 17.62273216247559 22.02632904052734 M 1.602062225341797 18.42168807983398 L 0.8010330200195312 18.42168807983398 L 0.8010330200195312 17.62064743041992 L 1.602062225341797 17.62064743041992 L 1.602062225341797 18.42168807983398 M 13.61756229400635 18.42168807983398 L 7.209301948547363 18.42168807983398 L 7.209301948547363 17.62064743041992 L 13.61756229400635 17.62064743041992 L 13.61756229400635 18.42168807983398 M 20.02583122253418 18.42168807983398 L 19.22480201721191 18.42168807983398 L 19.22480201721191 17.62064743041992 L 20.02583122253418 17.62064743041992 L 20.02583122253418 18.42168807983398 M 5.607232093811035 11.51289749145508 C 6.54575252532959 11.51289749145508 7.30930233001709 12.27644729614258 7.30930233001709 13.21496772766113 L 7.30930233001709 16.71961784362793 L 13.51756191253662 16.71961784362793 L 13.51756191253662 13.21496772766113 C 13.51756191253662 12.27644729614258 14.28111267089844 11.51289749145508 15.21963214874268 11.51289749145508 C 16.15815162658691 11.51289749145508 16.92170143127441 12.27644729614258 16.92170143127441 13.21496772766113 L 16.92170143127441 13.28121376037598 C 17.13679313659668 13.17202949523926 17.37595367431641 13.11496734619141 17.62273216247559 13.11496734619141 C 18.56125259399414 13.11496734619141 19.32480239868164 13.87851715087891 19.32480239868164 14.81703758239746 L 19.32480239868164 16.71961784362793 L 20.42635154724121 16.71961784362793 C 20.72104263305664 16.71961784362793 20.9268627166748 16.92543792724609 20.9268627166748 17.22013854980469 L 20.9268627166748 18.82219696044922 C 20.9268627166748 19.11689758300781 20.72104263305664 19.32271766662598 20.42635154724121 19.32271766662598 L 19.32480239868164 19.32271766662598 L 19.32480239868164 21.22529792785645 C 19.32480239868164 22.163818359375 18.56125259399414 22.9273681640625 17.62273216247559 22.9273681640625 C 17.37595367431641 22.9273681640625 17.13679313659668 22.87030792236328 16.92170143127441 22.76112174987793 L 16.92170143127441 22.82736778259277 C 16.92170143127441 23.76588821411133 16.15815162658691 24.52943801879883 15.21963214874268 24.52943801879883 C 14.28111267089844 24.52943801879883 13.51756191253662 23.76588821411133 13.51756191253662 22.82736778259277 L 13.51756191253662 19.32271766662598 L 7.30930233001709 19.32271766662598 L 7.30930233001709 22.82736778259277 C 7.30930233001709 23.76588821411133 6.54575252532959 24.52943801879883 5.607232093811035 24.52943801879883 C 4.668712615966797 24.52943801879883 3.905162811279297 23.76588821411133 3.905162811279297 22.82736778259277 L 3.905162811279297 22.76112174987793 C 3.690071105957031 22.87030792236328 3.450908660888672 22.9273681640625 3.204132080078125 22.9273681640625 C 2.26561164855957 22.9273681640625 1.50206184387207 22.163818359375 1.50206184387207 21.22529792785645 L 1.50206184387207 19.32271766662598 L 0.4005126953125 19.32271766662598 C 0.1058216094970703 19.32271766662598 -0.09999847412109375 19.11689758300781 -0.09999847412109375 18.82219696044922 L -0.09999847412109375 17.22013854980469 C -0.09999847412109375 16.92543792724609 0.1058216094970703 16.71961784362793 0.4005126953125 16.71961784362793 L 1.50206184387207 16.71961784362793 L 1.50206184387207 14.81703758239746 C 1.50206184387207 13.87851715087891 2.26561164855957 13.11496734619141 3.204132080078125 13.11496734619141 C 3.450908660888672 13.11496734619141 3.690071105957031 13.17202949523926 3.905162811279297 13.28121376037598 L 3.905162811279297 13.21496772766113 C 3.905162811279297 12.27644729614258 4.668712615966797 11.51289749145508 5.607232093811035 11.51289749145508 Z M 5.607232093811035 23.52839660644531 C 5.993782043457031 23.52839660644531 6.308261871337891 23.21391677856445 6.308261871337891 22.82736778259277 L 6.308261871337891 13.21496772766113 C 6.308261871337891 12.82841682434082 5.993782043457031 12.51393699645996 5.607232093811035 12.51393699645996 C 5.220682144165039 12.51393699645996 4.90620231628418 12.82841682434082 4.90620231628418 13.21496772766113 L 4.90620231628418 22.82736778259277 C 4.90620231628418 23.21391677856445 5.220682144165039 23.52839660644531 5.607232093811035 23.52839660644531 Z M 15.21963214874268 23.52839660644531 C 15.60618209838867 23.52839660644531 15.92066192626953 23.21391677856445 15.92066192626953 22.82736778259277 L 15.92066192626953 13.21496772766113 C 15.92066192626953 12.82841682434082 15.60618209838867 12.51393699645996 15.21963214874268 12.51393699645996 C 14.83308219909668 12.51393699645996 14.51860237121582 12.82841682434082 14.51860237121582 13.21496772766113 L 14.51860237121582 22.82736778259277 C 14.51860237121582 23.21391677856445 14.83308219909668 23.52839660644531 15.21963214874268 23.52839660644531 Z M 3.204132080078125 21.92632675170898 C 3.590682983398438 21.92632675170898 3.905162811279297 21.61184692382812 3.905162811279297 21.22529792785645 L 3.905162811279297 14.81703758239746 C 3.905162811279297 14.43048858642578 3.590682983398438 14.11599731445312 3.204132080078125 14.11599731445312 C 2.817581176757812 14.11599731445312 2.503101348876953 14.43048858642578 2.503101348876953 14.81703758239746 L 2.503101348876953 21.22529792785645 C 2.503101348876953 21.61184692382812 2.817581176757812 21.92632675170898 3.204132080078125 21.92632675170898 Z M 17.62273216247559 21.92632675170898 C 18.00928115844727 21.92632675170898 18.32376289367676 21.61184692382812 18.32376289367676 21.22529792785645 L 18.32376289367676 14.81703758239746 C 18.32376289367676 14.43048858642578 18.00928115844727 14.11599731445312 17.62273216247559 14.11599731445312 C 17.23618316650391 14.11599731445312 16.92170143127441 14.43048858642578 16.92170143127441 14.81703758239746 L 16.92170143127441 21.22529792785645 C 16.92170143127441 21.61184692382812 17.23618316650391 21.92632675170898 17.62273216247559 21.92632675170898 Z M 1.50206184387207 17.72064781188965 L 0.901031494140625 17.72064781188965 L 0.901031494140625 18.32168769836426 L 1.50206184387207 18.32168769836426 L 1.50206184387207 17.72064781188965 Z M 13.51756191253662 17.72064781188965 L 7.30930233001709 17.72064781188965 L 7.30930233001709 18.32168769836426 L 13.51756191253662 18.32168769836426 L 13.51756191253662 17.72064781188965 Z M 19.92583274841309 17.72064781188965 L 19.32480239868164 17.72064781188965 L 19.32480239868164 18.32168769836426 L 19.92583274841309 18.32168769836426 L 19.92583274841309 17.72064781188965 Z" stroke="none" fill="#fff"/>
          </g>
        </g>
      </g>
      <g id="Group_895" data-name="Group 895" transform="translate(4.005)">
        <g id="Group_894" data-name="Group 894">
          <g id="Path_280" data-name="Path 280" transform="translate(-3.871)" fill="#fff">
            <path d="M 19.09060096740723 12.86653518676758 C 18.17965126037598 12.86653518676758 17.43853187561035 12.12541580200195 17.43853187561035 11.21446514129639 L 17.43853187561035 7.659815788269043 L 11.13027095794678 7.659815788269043 L 11.13027095794678 11.21446514129639 C 11.13027095794678 12.12541580200195 10.38915061950684 12.86653518676758 9.478200912475586 12.86653518676758 C 8.567251205444336 12.86653518676758 7.826130867004395 12.12541580200195 7.826130867004395 11.21446514129639 L 7.826130867004395 11.06416511535645 C 7.5998854637146 11.19547843933105 7.342133045196533 11.26446533203125 7.075100898742676 11.26446533203125 C 6.164150714874268 11.26446533203125 5.423030853271484 10.52334594726562 5.423030853271484 9.612395286560059 L 5.423030853271484 7.659815788269043 L 4.271481037139893 7.659815788269043 C 4.002020835876465 7.659815788269043 3.820971012115479 7.478765487670898 3.820971012115479 7.209295749664307 L 3.820971012115479 5.607235431671143 C 3.820971012115479 5.337765693664551 4.002020835876465 5.156715393066406 4.271481037139893 5.156715393066406 L 5.423030853271484 5.156715393066406 L 5.423030853271484 3.204135656356812 C 5.423030853271484 2.293185472488403 6.164150714874268 1.55206561088562 7.075100898742676 1.55206561088562 C 7.342133045196533 1.55206561088562 7.5998854637146 1.621052861213684 7.826130867004395 1.752366423606873 L 7.826130867004395 1.602065563201904 C 7.826130867004395 0.6911156177520752 8.567251205444336 -0.05000440776348114 9.478200912475586 -0.05000440776348114 C 10.38915061950684 -0.05000440776348114 11.13027095794678 0.6911156177520752 11.13027095794678 1.602065563201904 L 11.13027095794678 5.156715393066406 L 17.43853187561035 5.156715393066406 L 17.43853187561035 1.602065563201904 C 17.43853187561035 0.6911156177520752 18.17965126037598 -0.05000440776348114 19.09060096740723 -0.05000440776348114 C 20.00155067443848 -0.05000440776348114 20.74266052246094 0.6911156177520752 20.74266052246094 1.602065563201904 L 20.74266052246094 1.752372264862061 C 20.96890640258789 1.621058702468872 21.22666931152344 1.55206561088562 21.49370002746582 1.55206561088562 C 22.4046516418457 1.55206561088562 23.14576148986816 2.293185472488403 23.14576148986816 3.204135656356812 L 23.14576148986816 5.156715393066406 L 24.29731178283691 5.156715393066406 C 24.56678009033203 5.156715393066406 24.74783134460449 5.337765693664551 24.74783134460449 5.607235431671143 L 24.74783134460449 7.209295749664307 C 24.74783134460449 7.478765487670898 24.56678009033203 7.659815788269043 24.29731178283691 7.659815788269043 L 23.14576148986816 7.659815788269043 L 23.14576148986816 9.612395286560059 C 23.14576148986816 10.52334594726562 22.4046516418457 11.26446533203125 21.49370002746582 11.26446533203125 C 21.22666931152344 11.26446533203125 20.96890640258789 11.19547271728516 20.74266052246094 11.06415939331055 L 20.74266052246094 11.21446514129639 C 20.74266052246094 12.12541580200195 20.00155067443848 12.86653518676758 19.09060096740723 12.86653518676758 Z M 19.09060096740723 0.8510355949401855 C 18.67648124694824 0.8510355949401855 18.33957099914551 1.187945604324341 18.33957099914551 1.602065563201904 L 18.33957099914551 11.21446514129639 C 18.33957099914551 11.62858581542969 18.67648124694824 11.96549606323242 19.09060096740723 11.96549606323242 C 19.50472068786621 11.96549606323242 19.84163093566895 11.62858581542969 19.84163093566895 11.21446514129639 L 19.84163093566895 1.602065563201904 C 19.84163093566895 1.187945604324341 19.50472068786621 0.8510355949401855 19.09060096740723 0.8510355949401855 Z M 9.478200912475586 0.8510355949401855 C 9.064081192016602 0.8510355949401855 8.727170944213867 1.187945604324341 8.727170944213867 1.602065563201904 L 8.727170944213867 11.21446514129639 C 8.727170944213867 11.62858581542969 9.064081192016602 11.96549606323242 9.478200912475586 11.96549606323242 C 9.89232063293457 11.96549606323242 10.2292308807373 11.62858581542969 10.2292308807373 11.21446514129639 L 10.2292308807373 1.602065563201904 C 10.2292308807373 1.187945604324341 9.89232063293457 0.8510355949401855 9.478200912475586 0.8510355949401855 Z M 21.49370002746582 2.453095674514771 C 21.07958030700684 2.453095674514771 20.74266052246094 2.790015697479248 20.74266052246094 3.204135656356812 L 20.74266052246094 9.612395286560059 C 20.74266052246094 10.02651596069336 21.07958030700684 10.36343574523926 21.49370002746582 10.36343574523926 C 21.90782165527344 10.36343574523926 22.24472999572754 10.02651596069336 22.24472999572754 9.612395286560059 L 22.24472999572754 3.204135656356812 C 22.24472999572754 2.790015697479248 21.90782165527344 2.453095674514771 21.49370002746582 2.453095674514771 Z M 7.075100898742676 2.453095674514771 C 6.660981178283691 2.453095674514771 6.324070930480957 2.790015697479248 6.324070930480957 3.204135656356812 L 6.324070930480957 9.612395286560059 C 6.324070930480957 10.02651596069336 6.660981178283691 10.36343574523926 7.075100898742676 10.36343574523926 C 7.489221096038818 10.36343574523926 7.826130867004395 10.02651596069336 7.826130867004395 9.612395286560059 L 7.826130867004395 3.204135656356812 C 7.826130867004395 2.790015697479248 7.489221096038818 2.453095674514771 7.075100898742676 2.453095674514771 Z M 23.14576148986816 6.758785724639893 L 23.8468017578125 6.758785724639893 L 23.8468017578125 6.057745456695557 L 23.14576148986816 6.057745456695557 L 23.14576148986816 6.758785724639893 Z M 11.13027095794678 6.758785724639893 L 17.43853187561035 6.758785724639893 L 17.43853187561035 6.057745456695557 L 11.13027095794678 6.057745456695557 L 11.13027095794678 6.758785724639893 Z M 4.722001075744629 6.758785724639893 L 5.423030853271484 6.758785724639893 L 5.423030853271484 6.057745456695557 L 4.722001075744629 6.057745456695557 L 4.722001075744629 6.758785724639893 Z" stroke="none"/>
            <path d="M 9.478200912475586 -4.76837158203125e-06 C 8.597061157226562 -4.76837158203125e-06 7.876131057739258 0.7209253311157227 7.876131057739258 1.602066040039062 L 7.876131057739258 1.842375755310059 C 7.635820388793945 1.682165145874023 7.355461120605469 1.602066040039062 7.075101852416992 1.602066040039062 C 6.193960189819336 1.602066040039062 5.473030090332031 2.322995185852051 5.473030090332031 3.204135894775391 L 5.473030090332031 5.20671558380127 L 4.271480560302734 5.20671558380127 C 4.031171798706055 5.20671558380127 3.8709716796875 5.366925716400146 3.8709716796875 5.607235431671143 L 3.8709716796875 7.209295749664307 C 3.8709716796875 7.449605464935303 4.031171798706055 7.60981559753418 4.271480560302734 7.60981559753418 L 5.473030090332031 7.60981559753418 L 5.473030090332031 9.612395286560059 C 5.473030090332031 10.4935359954834 6.193960189819336 11.2144660949707 7.075101852416992 11.2144660949707 C 7.355461120605469 11.2144660949707 7.635820388793945 11.13436508178711 7.876131057739258 10.97415542602539 L 7.876131057739258 11.2144660949707 C 7.876131057739258 12.09560585021973 8.597061157226562 12.81653594970703 9.478200912475586 12.81653594970703 C 10.35934066772461 12.81653594970703 11.08026123046875 12.09560585021973 11.08026123046875 11.2144660949707 L 11.08026123046875 7.60981559753418 L 17.4885311126709 7.60981559753418 L 17.4885311126709 11.2144660949707 C 17.4885311126709 12.09560585021973 18.2094612121582 12.81653594970703 19.09060096740723 12.81653594970703 C 19.97174072265625 12.81653594970703 20.69266128540039 12.09560585021973 20.69266128540039 11.2144660949707 L 20.69266128540039 10.97415542602539 C 20.9329719543457 11.13436508178711 21.21334075927734 11.2144660949707 21.49370193481445 11.2144660949707 C 22.37483024597168 11.2144660949707 23.09576034545898 10.4935359954834 23.09576034545898 9.612395286560059 L 23.09576034545898 7.60981559753418 L 24.29730987548828 7.60981559753418 C 24.53762054443359 7.60981559753418 24.69783020019531 7.449605464935303 24.69783020019531 7.209295749664307 L 24.69783020019531 5.607235431671143 C 24.69783020019531 5.366925716400146 24.53762054443359 5.20671558380127 24.29730987548828 5.20671558380127 L 23.09576034545898 5.20671558380127 L 23.09576034545898 3.204135894775391 C 23.09576034545898 2.322995185852051 22.37483024597168 1.602066040039062 21.49370193481445 1.602066040039062 C 21.21334075927734 1.602066040039062 20.9329719543457 1.682165145874023 20.69266128540039 1.842375755310059 L 20.69266128540039 1.602066040039062 C 20.69266128540039 0.7209253311157227 19.97174072265625 -4.76837158203125e-06 19.09060096740723 -4.76837158203125e-06 C 18.2094612121582 -4.76837158203125e-06 17.4885311126709 0.7209253311157227 17.4885311126709 1.602066040039062 L 17.4885311126709 5.20671558380127 L 11.08026123046875 5.20671558380127 L 11.08026123046875 1.602066040039062 C 11.08026123046875 0.7209253311157227 10.35934066772461 -4.76837158203125e-06 9.478200912475586 -4.76837158203125e-06 M 9.478200912475586 12.01549530029297 C 9.037630081176758 12.01549530029297 8.677160263061523 11.65503597259521 8.677160263061523 11.2144660949707 L 8.677160263061523 1.602066040039062 C 8.677160263061523 1.161495208740234 9.037630081176758 0.8010358810424805 9.478200912475586 0.8010358810424805 C 9.918771743774414 0.8010358810424805 10.27923011779785 1.161495208740234 10.27923011779785 1.602066040039062 L 10.27923011779785 11.2144660949707 C 10.27923011779785 11.65503597259521 9.918771743774414 12.01549530029297 9.478200912475586 12.01549530029297 M 19.09060096740723 12.01549530029297 C 18.65003204345703 12.01549530029297 18.2895622253418 11.65503597259521 18.2895622253418 11.2144660949707 L 18.2895622253418 1.602066040039062 C 18.2895622253418 1.161495208740234 18.65003204345703 0.8010358810424805 19.09060096740723 0.8010358810424805 C 19.53116989135742 0.8010358810424805 19.89163208007812 1.161495208740234 19.89163208007812 1.602066040039062 L 19.89163208007812 11.2144660949707 C 19.89163208007812 11.65503597259521 19.53116989135742 12.01549530029297 19.09060096740723 12.01549530029297 M 7.075101852416992 10.41343593597412 C 6.634531021118164 10.41343593597412 6.274070739746094 10.05296516418457 6.274070739746094 9.612395286560059 L 6.274070739746094 3.204135894775391 C 6.274070739746094 2.763566017150879 6.634531021118164 2.403095245361328 7.075101852416992 2.403095245361328 C 7.515670776367188 2.403095245361328 7.876131057739258 2.763566017150879 7.876131057739258 3.204135894775391 L 7.876131057739258 9.612395286560059 C 7.876131057739258 10.05296516418457 7.515670776367188 10.41343593597412 7.075101852416992 10.41343593597412 M 21.49370193481445 10.41343593597412 C 21.05313110351562 10.41343593597412 20.69266128540039 10.05296516418457 20.69266128540039 9.612395286560059 L 20.69266128540039 3.204135894775391 C 20.69266128540039 2.763566017150879 21.05313110351562 2.403095245361328 21.49370193481445 2.403095245361328 C 21.93427085876465 2.403095245361328 22.29473114013672 2.763566017150879 22.29473114013672 3.204135894775391 L 22.29473114013672 9.612395286560059 C 22.29473114013672 10.05296516418457 21.93427085876465 10.41343593597412 21.49370193481445 10.41343593597412 M 5.473030090332031 6.808785438537598 L 4.672000885009766 6.808785438537598 L 4.672000885009766 6.007745742797852 L 5.473030090332031 6.007745742797852 L 5.473030090332031 6.808785438537598 M 17.4885311126709 6.808785438537598 L 11.08026123046875 6.808785438537598 L 11.08026123046875 6.007745742797852 L 17.4885311126709 6.007745742797852 L 17.4885311126709 6.808785438537598 M 23.89680099487305 6.808785438537598 L 23.09576034545898 6.808785438537598 L 23.09576034545898 6.007745742797852 L 23.89680099487305 6.007745742797852 L 23.89680099487305 6.808785438537598 M 9.478200912475586 -0.1000041961669922 C 10.41672134399414 -0.1000041961669922 11.18026161193848 0.6635456085205078 11.18026161193848 1.602066040039062 L 11.18026161193848 5.106715679168701 L 17.38853073120117 5.106715679168701 L 17.38853073120117 1.602066040039062 C 17.38853073120117 0.6635456085205078 18.15208053588867 -0.1000041961669922 19.09060096740723 -0.1000041961669922 C 20.02912139892578 -0.1000041961669922 20.79265975952148 0.6635456085205078 20.79265975952148 1.602066040039062 L 20.79265975952148 1.66831111907959 C 21.00775146484375 1.559126853942871 21.24691581726074 1.502065658569336 21.49370193481445 1.502065658569336 C 22.43222045898438 1.502065658569336 23.19576072692871 2.265615463256836 23.19576072692871 3.204135894775391 L 23.19576072692871 5.106715679168701 L 24.29730987548828 5.106715679168701 C 24.59201049804688 5.106715679168701 24.79783058166504 5.312535762786865 24.79783058166504 5.607235431671143 L 24.79783058166504 7.209295749664307 C 24.79783058166504 7.503995418548584 24.59201049804688 7.709815502166748 24.29730987548828 7.709815502166748 L 23.19576072692871 7.709815502166748 L 23.19576072692871 9.612395286560059 C 23.19576072692871 10.55091571807861 22.43222045898438 11.31446552276611 21.49370193481445 11.31446552276611 C 21.24691581726074 11.31446552276611 21.00775146484375 11.25740432739258 20.79265975952148 11.14822006225586 L 20.79265975952148 11.2144660949707 C 20.79265975952148 12.15298557281494 20.02912139892578 12.91653537750244 19.09060096740723 12.91653537750244 C 18.15208053588867 12.91653537750244 17.38853073120117 12.15298557281494 17.38853073120117 11.2144660949707 L 17.38853073120117 7.709815502166748 L 11.18026161193848 7.709815502166748 L 11.18026161193848 11.2144660949707 C 11.18026161193848 12.15298557281494 10.41672134399414 12.91653537750244 9.478200912475586 12.91653537750244 C 8.539680480957031 12.91653537750244 7.776130676269531 12.15298557281494 7.776130676269531 11.2144660949707 L 7.776130676269531 11.14822006225586 C 7.561040878295898 11.25740432739258 7.321878433227539 11.31446552276611 7.075101852416992 11.31446552276611 C 6.136581420898438 11.31446552276611 5.373031616210938 10.55091571807861 5.373031616210938 9.612395286560059 L 5.373031616210938 7.709815502166748 L 4.271480560302734 7.709815502166748 C 3.976791381835938 7.709815502166748 3.770971298217773 7.503995418548584 3.770971298217773 7.209295749664307 L 3.770971298217773 5.607235431671143 C 3.770971298217773 5.312535762786865 3.976791381835938 5.106715679168701 4.271480560302734 5.106715679168701 L 5.373031616210938 5.106715679168701 L 5.373031616210938 3.204135894775391 C 5.373031616210938 2.265615463256836 6.136581420898438 1.502065658569336 7.075101852416992 1.502065658569336 C 7.321878433227539 1.502065658569336 7.561040878295898 1.559126853942871 7.776130676269531 1.66831111907959 L 7.776130676269531 1.602066040039062 C 7.776130676269531 0.6635456085205078 8.539680480957031 -0.1000041961669922 9.478200912475586 -0.1000041961669922 Z M 9.478200912475586 11.91549587249756 C 9.864751815795898 11.91549587249756 10.17923164367676 11.60101509094238 10.17923164367676 11.2144660949707 L 10.17923164367676 1.602066040039062 C 10.17923164367676 1.21551513671875 9.864751815795898 0.9010353088378906 9.478200912475586 0.9010353088378906 C 9.091650009155273 0.9010353088378906 8.77716064453125 1.21551513671875 8.77716064453125 1.602066040039062 L 8.77716064453125 11.2144660949707 C 8.77716064453125 11.60101509094238 9.091650009155273 11.91549587249756 9.478200912475586 11.91549587249756 Z M 19.09060096740723 11.91549587249756 C 19.47714996337891 11.91549587249756 19.79162979125977 11.60101509094238 19.79162979125977 11.2144660949707 L 19.79162979125977 1.602066040039062 C 19.79162979125977 1.21551513671875 19.47714996337891 0.9010353088378906 19.09060096740723 0.9010353088378906 C 18.70405197143555 0.9010353088378906 18.38956069946289 1.21551513671875 18.38956069946289 1.602066040039062 L 18.38956069946289 11.2144660949707 C 18.38956069946289 11.60101509094238 18.70405197143555 11.91549587249756 19.09060096740723 11.91549587249756 Z M 7.075101852416992 10.31343555450439 C 7.461650848388672 10.31343555450439 7.776130676269531 9.998945236206055 7.776130676269531 9.612395286560059 L 7.776130676269531 3.204135894775391 C 7.776130676269531 2.817585945129395 7.461650848388672 2.503095626831055 7.075101852416992 2.503095626831055 C 6.68855094909668 2.503095626831055 6.37407112121582 2.817585945129395 6.37407112121582 3.204135894775391 L 6.37407112121582 9.612395286560059 C 6.37407112121582 9.998945236206055 6.68855094909668 10.31343555450439 7.075101852416992 10.31343555450439 Z M 21.49370193481445 10.31343555450439 C 21.88025093078613 10.31343555450439 22.19473075866699 9.998945236206055 22.19473075866699 9.612395286560059 L 22.19473075866699 3.204135894775391 C 22.19473075866699 2.817585945129395 21.88025093078613 2.503095626831055 21.49370193481445 2.503095626831055 C 21.10715103149414 2.503095626831055 20.79265975952148 2.817585945129395 20.79265975952148 3.204135894775391 L 20.79265975952148 9.612395286560059 C 20.79265975952148 9.998945236206055 21.10715103149414 10.31343555450439 21.49370193481445 10.31343555450439 Z M 5.373031616210938 6.10774564743042 L 4.772001266479492 6.10774564743042 L 4.772001266479492 6.708785533905029 L 5.373031616210938 6.708785533905029 L 5.373031616210938 6.10774564743042 Z M 17.38853073120117 6.10774564743042 L 11.18026161193848 6.10774564743042 L 11.18026161193848 6.708785533905029 L 17.38853073120117 6.708785533905029 L 17.38853073120117 6.10774564743042 Z M 23.79680061340332 6.10774564743042 L 23.19576072692871 6.10774564743042 L 23.19576072692871 6.708785533905029 L 23.79680061340332 6.708785533905029 L 23.79680061340332 6.10774564743042 Z" stroke="none" fill="#fff"/>
          </g>
        </g>
      </g>
    </g>
  </g>
</svg>
