<svg xmlns="http://www.w3.org/2000/svg" xmlns:xlink="http://www.w3.org/1999/xlink" width="23.969" height="24.969" viewBox="0 0 23.969 24.969">
  <defs>
    <clipPath id="clip-path">
      <rect id="Rectangle_390" data-name="Rectangle 390" width="23.969" height="24.969" fill="#fff" stroke="#fff" stroke-width="0.3"/>
    </clipPath>
  </defs>
  <g id="Mask_Group_72" data-name="Mask Group 72" clip-path="url(#clip-path)">
    <path id="tshirt" d="M11.212,2.4a.4.4,0,0,0-.4.4v1.31l-2.1.7L4.74,5.6a.4.4,0,0,0-.136.054L.21,8.451A.4.4,0,0,0,.087,9l2.8,4.394a.4.4,0,0,0,.606.08l.931-.844V23.569a.4.4,0,0,0,.4.4H17.6a.4.4,0,0,0,.4-.4V12.718l.946.773a.391.391,0,0,0,.308.086.4.4,0,0,0,.272-.167l2.8-3.995a.4.4,0,0,0-.092-.552l-4.394-3.2a.4.4,0,0,0-.156-.068l-3.971-.795-2.1-.7V3.139a1.6,1.6,0,1,0-2-1.541.4.4,0,1,0,.8,0,.8.8,0,1,1,.8.8Zm0,2.418,1.97.658a1.988,1.988,0,0,1-3.939,0ZM21.446,9.28,19.122,12.6l-1.265-1.035a.4.4,0,0,0-.653.31V23.17H5.22V11.73a.4.4,0,0,0-.668-.3L3.3,12.568.977,8.911,4.972,6.369l3.484-.7a2.8,2.8,0,0,0,5.51,0l3.472.695Zm0,0" transform="translate(1.168 1)" fill="#fff" stroke="#fff" stroke-width="0.3"/>
  </g>
</svg>
