<svg xmlns="http://www.w3.org/2000/svg" xmlns:xlink="http://www.w3.org/1999/xlink" width="24.258" height="24.258" viewBox="0 0 24.258 24.258">
  <defs>
    <clipPath id="clip-path">
      <rect id="Rectangle_374" data-name="Rectangle 374" width="24.258" height="24.258" fill="#fff" stroke="#fff" stroke-width="0.1"/>
    </clipPath>
  </defs>
  <g id="Mask_Group_67" data-name="Mask Group 67" clip-path="url(#clip-path)">
    <g id="rocking-horse" transform="translate(-0.03 0.206)">
      <g id="Path_276" data-name="Path 276" transform="translate(0 -0.204)" fill="#fff">
        <path d="M 12.12885189056396 24.09906959533691 C 7.662342071533203 24.09906959533691 3.463131904602051 22.35970878601074 0.3047618865966797 19.2013988494873 C 0.07599189132452011 18.97261810302734 -0.04999810829758644 18.66843795776367 -0.04999810829758644 18.34488868713379 C -0.04999810829758644 18.02133941650391 0.07599189132452011 17.71715927124023 0.3047618865966797 17.48837852478027 C 0.5334818959236145 17.25960922241211 0.8376718759536743 17.13361930847168 1.161271929740906 17.13361930847168 C 1.484791874885559 17.13361930847168 1.788971900939941 17.25962829589844 2.017781972885132 17.48842811584473 C 2.543735027313232 18.01439094543457 3.11348819732666 18.50265312194824 3.712178468704224 18.94053840637207 L 4.872827529907227 14.16805839538574 L 4.258001804351807 14.16805839538574 C 3.590101957321167 14.16805839538574 3.046731948852539 13.62468910217285 3.046731948852539 12.95678901672363 C 3.046731948852539 12.28888893127441 3.590101957321167 11.74551868438721 4.258001804351807 11.74551868438721 L 4.728606224060059 11.74551868438721 L 6.467376232147217 7.078979015350342 L 3.304311990737915 7.078979015350342 C 3.125261783599854 7.078979015350342 2.961481809616089 6.966798782348633 2.896771907806396 6.799829006195068 L 2.151901960372925 4.87825870513916 C 2.06987190246582 4.666779041290283 2.161051988601685 4.430809020996094 2.363991975784302 4.329388618469238 L 7.186079025268555 1.918201327323914 L 6.78983211517334 0.7294788360595703 C 6.745542049407959 0.596518874168396 6.768002033233643 0.449308842420578 6.849921703338623 0.3356888592243195 C 6.93179178237915 0.2220188528299332 7.064352035522461 0.1541488468647003 7.204492092132568 0.1541488468647003 C 9.722222328186035 0.1541488468647003 11.77055168151855 2.202478885650635 11.77055168151855 4.720218658447266 C 11.77055168151855 4.961228847503662 11.57447147369385 5.157309055328369 11.33346176147461 5.157309055328369 C 11.09245204925537 5.157309055328369 10.89637184143066 4.961228847503662 10.89637184143066 4.720218658447266 C 10.89637184143066 2.931438684463501 9.583175659179688 1.381421566009521 7.828518867492676 1.081105709075928 L 8.135312080383301 2.001428842544556 C 8.203641891479492 2.206458806991577 8.10941219329834 2.433948755264282 7.916131973266602 2.530588865280151 L 3.110770702362061 4.933274269104004 L 3.603635311126709 6.204798698425293 L 7.096672058105469 6.204798698425293 C 7.239781856536865 6.204798698425293 7.373981952667236 6.274988651275635 7.455661773681641 6.392559051513672 C 7.537332057952881 6.510118961334229 7.556241989135742 6.660388946533203 7.506251811981201 6.794518947601318 L 5.661478042602539 11.74551868438721 L 10.89642143249512 11.74551868438721 L 10.89642143249512 6.268678665161133 C 10.89642143249512 6.027668952941895 11.09250164031982 5.831588745117188 11.33351230621338 5.831588745117188 C 11.57452201843262 5.831588745117188 11.77060222625732 6.027668952941895 11.77060222625732 6.268678665161133 L 11.77060222625732 11.74556922912598 L 16.86856079101562 11.74556922912598 L 17.51164245605469 8.101308822631836 C 17.61396217346191 7.521399021148682 18.11556243896484 7.100498676300049 18.70434188842773 7.100498676300049 C 18.77445220947266 7.100498676300049 18.84527206420898 7.106698989868164 18.9148120880127 7.11893892288208 C 19.23302268981934 7.175078868865967 19.51055145263672 7.352128982543945 19.69631195068359 7.617478847503662 C 19.88206100463867 7.882808685302734 19.95345115661621 8.20414924621582 19.89731216430664 8.522298812866211 L 19.32852935791016 11.74551868438721 L 19.99970245361328 11.74551868438721 C 20.6676025390625 11.74551868438721 21.21098136901855 12.28888893127441 21.21098136901855 12.95678901672363 C 21.21098136901855 13.62468910217285 20.6676025390625 14.16805839538574 19.99970245361328 14.16805839538574 L 19.38482666015625 14.16805839538574 L 20.54547500610352 18.9405403137207 C 21.14417457580566 18.50265312194824 21.71393966674805 18.01437950134277 22.23992156982422 17.48837852478027 C 22.46864128112793 17.25960922241211 22.77283096313477 17.13361930847168 23.09643173217773 17.13361930847168 C 23.41995239257812 17.13361930847168 23.7241325378418 17.25962829589844 23.95294189453125 17.48844909667969 C 24.18171119689941 17.71715927124023 24.30770111083984 18.02130889892578 24.30770111083984 18.34483909606934 C 24.30770111083984 18.66838836669922 24.18171119689941 18.97256851196289 23.95294189453125 19.20134925842285 C 20.79459190368652 22.35968971252441 16.59538269042969 24.09906959533691 12.12885189056396 24.09906959533691 Z M 1.161271929740906 18.00779914855957 C 1.071221947669983 18.00779914855957 0.9865818619728088 18.04284858703613 0.922921895980835 18.10649871826172 C 0.8592519164085388 18.17017936706543 0.8241819143295288 18.25483894348145 0.8241819143295288 18.34488868713379 C 0.8241819143295288 18.43490791320801 0.8592519164085388 18.51955795288086 0.9229319095611572 18.58322906494141 C 3.916141986846924 21.57644844055176 7.895822048187256 23.22488975524902 12.12885189056396 23.22488975524902 C 16.36188125610352 23.22488975524902 20.34156227111816 21.57644844055176 23.33477210998535 18.58322906494141 C 23.39844131469727 18.51961898803711 23.43353271484375 18.43492889404297 23.4335823059082 18.34475898742676 C 23.4335823059082 18.25471878051758 23.39852142333984 18.17007827758789 23.33485221862793 18.10645866394043 C 23.27116203308105 18.04276847839355 23.1865119934082 18.00769805908203 23.09649276733398 18.00769805908203 C 23.00643157958984 18.00769805908203 22.92178153991699 18.04274940490723 22.85815238952637 18.10638809204102 C 22.1407413482666 18.82383918762207 21.3520622253418 19.47047805786133 20.51402282714844 20.02834892272949 C 20.44199180603027 20.0762882232666 20.35822105407715 20.10162925720215 20.27174186706543 20.10162925720215 C 20.21711158752441 20.10162925720215 20.16362190246582 20.09153938293457 20.11275100708008 20.07162857055664 C 19.98007202148438 20.01984977722168 19.88074111938477 19.90626907348633 19.84708213806152 19.7678279876709 L 18.48523712158203 14.16800880432129 L 17.79140663146973 14.16800880432129 L 19.30239105224609 20.38108825683594 C 19.35022163391113 20.57778930664062 19.25802230834961 20.77997970581055 19.07818222045898 20.87279891967773 C 16.95209121704102 21.97048950195312 14.54905223846436 22.55069923400879 12.12885189056396 22.55069923400879 C 9.708581924438477 22.55069923400879 7.305552005767822 21.97050857543945 5.179562091827393 20.87284851074219 C 4.999722003936768 20.78000831604004 4.90753173828125 20.57780838012695 4.955371856689453 20.38113975524902 L 6.466357707977295 14.16811847686768 L 5.772526741027832 14.16811847686768 L 4.41068172454834 19.7679386138916 C 4.37697172164917 19.90636825561523 4.277641773223877 20.01994895935059 4.144991874694824 20.07174873352051 C 4.094061851501465 20.09159851074219 4.040581703186035 20.10164833068848 3.986011981964111 20.10164833068848 C 3.899511814117432 20.10164833068848 3.815741777420044 20.07633972167969 3.743761777877808 20.0284595489502 C 2.90572190284729 19.4705982208252 2.117041826248169 18.8239688873291 1.399611949920654 18.10654830932617 C 1.335941910743713 18.04286956787109 1.251291871070862 18.00779914855957 1.161271929740906 18.00779914855957 Z M 5.887010097503662 20.24971008300781 C 7.832225799560547 21.19646263122559 9.932107925415039 21.6765193939209 12.12885189056396 21.6765193939209 C 14.32558631896973 21.6765193939209 16.42547798156738 21.19646263122559 18.37070274353027 20.24971008300781 L 16.8917064666748 14.16806888580322 L 7.365996837615967 14.16806888580322 L 5.887010097503662 20.24971008300781 Z M 4.258001804351807 12.6196985244751 C 4.072132110595703 12.6196985244751 3.92091178894043 12.77091884613037 3.92091178894043 12.95678901672363 C 3.92091178894043 13.14265918731689 4.072132110595703 13.29387855529785 4.258001804351807 13.29387855529785 L 19.99970245361328 13.29387855529785 C 20.18558120727539 13.29387855529785 20.33680152893066 13.14265918731689 20.33680152893066 12.95678901672363 C 20.33680152893066 12.77091884613037 20.18558120727539 12.6196985244751 19.99970245361328 12.6196985244751 L 18.80628204345703 12.6196985244751 L 5.029861927032471 12.6196985244751 L 4.258001804351807 12.6196985244751 Z M 17.75626754760742 11.74551868438721 L 18.44087219238281 11.74551868438721 L 19.03647232055664 8.370358467102051 C 19.0687313079834 8.187309265136719 18.94608116149902 8.012088775634766 18.7630615234375 7.97977876663208 C 18.74359130859375 7.976338863372803 18.72379112243652 7.97459888458252 18.7042121887207 7.97459888458252 C 18.54049110412598 7.97459888458252 18.4010009765625 8.091758728027344 18.37253189086914 8.253189086914062 L 17.75626754760742 11.74551868438721 Z" stroke="none"/>
        <path d="M 12.12885189056396 24.04906845092773 C 16.58205223083496 24.04906845092773 20.7686710357666 22.31489944458008 23.91758155822754 19.16598892211914 C 24.13693237304688 18.9466381072998 24.2577018737793 18.655029296875 24.2577018737793 18.34483909606934 C 24.2577018737793 18.03469848632812 24.13688278198242 17.74304962158203 23.91758155822754 17.5237979888916 C 23.69823265075684 17.30443954467773 23.4066219329834 17.18361854553223 23.09643173217773 17.18361854553223 C 22.78624153137207 17.18361854553223 22.49458122253418 17.30438804626465 22.27528190612793 17.52373886108398 C 21.72845268249512 18.07057952880859 21.13786125183105 18.57394790649414 20.5145320892334 19.02487945556641 L 19.32121276855469 14.1180591583252 L 19.99970245361328 14.1180591583252 C 20.64006233215332 14.1180591583252 21.16098213195801 13.59713840484619 21.16098213195801 12.95678901672363 C 21.16098213195801 12.31643867492676 20.64006233215332 11.79551887512207 19.99970245361328 11.79551887512207 L 19.2689323425293 11.79551887512207 L 19.84807205200195 8.513608932495117 C 19.95934104919434 7.88300895690918 19.53685188293457 7.279458999633789 18.90615272521973 7.168179035186768 C 18.8383960723877 7.156258106231689 18.77089691162109 7.150495052337646 18.70433807373047 7.150495052337646 C 18.15163421630859 7.150495052337646 17.66014671325684 7.547409534454346 17.56088256835938 8.10999870300293 L 16.9105110168457 11.79556846618652 L 11.72060203552246 11.79556846618652 L 11.72060203552246 6.268678665161133 C 11.72060203552246 6.054908752441406 11.54729175567627 5.881588935852051 11.33351230621338 5.881588935852051 C 11.11973190307617 5.881588935852051 10.94642162322998 6.054908752441406 10.94642162322998 6.268678665161133 L 10.94642162322998 11.79551887512207 L 5.589491844177246 11.79551887512207 L 7.459402084350586 6.777059078216553 C 7.503681659698486 6.658248901367188 7.486961841583252 6.525249004364014 7.414601802825928 6.421088695526123 C 7.342241764068604 6.316938877105713 7.22348165512085 6.254798889160156 7.096672058105469 6.254798889160156 L 3.569391965866089 6.254798889160156 L 3.047701835632324 4.908908843994141 L 7.893772125244141 2.48586893081665 C 8.066051483154297 2.399728775024414 8.148781776428223 2.19999885559082 8.087882041931152 2.017238855361938 L 7.755032062530518 1.018748879432678 C 9.558261871337891 1.285788893699646 10.94637203216553 2.843958854675293 10.94637203216553 4.720218658447266 C 10.94637203216553 4.93398904800415 11.11968231201172 5.107308864593506 11.33346176147461 5.107308864593506 C 11.54723167419434 5.107308864593506 11.72055149078369 4.93398904800415 11.72055149078369 4.720218658447266 C 11.72055149078369 2.230028867721558 9.694671630859375 0.2041488438844681 7.204492092132568 0.2041488438844681 C 7.080051898956299 0.2041488438844681 6.963201999664307 0.2639688551425934 6.890481948852539 0.3649288415908813 C 6.817701816558838 0.4658788442611694 6.7979416847229 0.5956288576126099 6.83726167678833 0.7136688232421875 L 7.247221946716309 1.943528890609741 L 2.38634181022644 4.374108791351318 C 2.207711935043335 4.463388919830322 2.126311779022217 4.674018859863281 2.198521852493286 4.860188961029053 L 2.943391799926758 6.781758785247803 C 3.001141786575317 6.930758953094482 3.144521951675415 7.028978824615479 3.304311990737915 7.028978824615479 L 6.539361953735352 7.028978824615479 L 4.763331890106201 11.79551887512207 L 4.258001804351807 11.79551887512207 C 3.61765193939209 11.79551887512207 3.096731901168823 12.31643867492676 3.096731901168823 12.95678901672363 C 3.096731901168823 13.59713840484619 3.61765193939209 14.1180591583252 4.258001804351807 14.1180591583252 L 4.936441898345947 14.1180591583252 L 3.743121862411499 19.02487945556641 C 3.119801998138428 18.57394790649414 2.529201984405518 18.0705680847168 1.982421875 17.52378845214844 C 1.763071894645691 17.30443954467773 1.471461892127991 17.18361854553223 1.161271929740906 17.18361854553223 C 0.851081907749176 17.18361854553223 0.5594218969345093 17.30438804626465 0.3401218950748444 17.52373886108398 C 0.1207718923687935 17.74308967590332 1.890563908091281e-06 18.03469848632812 1.890563908091281e-06 18.34488868713379 C 1.890563908091281e-06 18.65507888793945 0.1207718923687935 18.94668960571289 0.3401218950748444 19.16603851318359 C 3.489031791687012 22.31489944458008 7.675652027130127 24.04906845092773 12.12885189056396 24.04906845092773 M 1.161271929740906 17.95779800415039 C 1.264701843261719 17.95779800415039 1.361841917037964 17.9980583190918 1.434971928596497 18.07118797302246 C 2.150011777877808 18.78622817993164 2.936111927032471 19.43075942993164 3.771451950073242 19.98682975769043 C 3.835906505584717 20.02970504760742 3.910694360733032 20.05165100097656 3.986008167266846 20.05165100097656 C 4.033547878265381 20.05165100097656 4.081287384033203 20.04291343688965 4.12680196762085 20.02517890930176 C 4.244431972503662 19.97923851013184 4.332221984863281 19.87880897521973 4.362102031707764 19.75611877441406 L 5.733232021331787 14.11811923980713 L 6.529972076416016 14.11811923980713 L 5.003952026367188 20.39295959472656 C 4.961731910705566 20.5665397644043 5.043741703033447 20.74645805358887 5.202501773834229 20.82841873168945 C 7.321442127227783 21.92243957519531 9.716551780700684 22.50069808959961 12.12885189056396 22.50069808959961 C 14.54115200042725 22.50069808959961 16.93627166748047 21.92238807678223 19.05525207519531 20.828369140625 C 19.21396255493164 20.74645805358887 19.29602241516113 20.56648826599121 19.25381278991699 20.39290809631348 L 17.72779273986816 14.11800861358643 L 18.52453231811523 14.11800861358643 L 19.89566230773926 19.75601959228516 C 19.92549133300781 19.87869834899902 20.01328277587891 19.97913932800293 20.13096237182617 20.02506828308105 C 20.17645072937012 20.04286193847656 20.22420501708984 20.0516242980957 20.2717399597168 20.0516242980957 C 20.34706497192383 20.0516242980957 20.42185020446777 20.02963256835938 20.4863109588623 19.98672866821289 C 21.32165145874023 19.4306583404541 22.10775184631348 18.78611946105957 22.82279205322266 18.0710391998291 C 22.89592170715332 17.99789810180664 22.99306106567383 17.95769882202148 23.09649276733398 17.95769882202148 C 23.19992256164551 17.95769882202148 23.29705238342285 17.99794960021973 23.37019157409668 18.07108879089355 C 23.44332122802734 18.14416885375977 23.48358154296875 18.24135971069336 23.48358154296875 18.34478950500488 C 23.48352241516113 18.44826889038086 23.44327163696289 18.54550933837891 23.37013244628906 18.61858940124512 C 20.36749267578125 21.62122917175293 16.37524223327637 23.27488899230957 12.12885189056396 23.27488899230957 C 7.882462024688721 23.27488899230957 3.890211820602417 21.62122917175293 0.8875718712806702 18.61858940124512 C 0.8144419193267822 18.54545974731445 0.7741819024085999 18.44826889038086 0.7741819024085999 18.34488868713379 C 0.7741819024085999 18.24151802062988 0.8144419193267822 18.14427947998047 0.8875718712806702 18.07113838195801 C 0.9607118964195251 17.99800872802734 1.057841897010803 17.95779800415039 1.161271929740906 17.95779800415039 M 7.326702117919922 14.11806869506836 L 16.93100166320801 14.11806869506836 L 18.42879104614258 20.2769889831543 C 16.4660816192627 21.23903846740723 14.34822177886963 21.72651863098145 12.12885189056396 21.72651863098145 C 9.909482002258301 21.72651863098145 7.791621685028076 21.23903846740723 5.828921794891357 20.2769889831543 L 7.326702117919922 14.11806869506836 M 4.258001804351807 12.56969928741455 L 5.029861927032471 12.56969928741455 C 5.033472061157227 12.56969928741455 18.80628204345703 12.56969928741455 18.80628204345703 12.56969928741455 C 18.8096923828125 12.56969928741455 19.99970245361328 12.56969928741455 19.99970245361328 12.56969928741455 C 20.21317100524902 12.56969928741455 20.38680267333984 12.74332904815674 20.38680267333984 12.95678901672363 C 20.38680267333984 13.17025852203369 20.21317100524902 13.34387874603271 19.99970245361328 13.34387874603271 L 4.258001804351807 13.34387874603271 C 4.04453182220459 13.34387874603271 3.870911836624146 13.17025852203369 3.870911836624146 12.95678901672363 C 3.870911836624146 12.74332904815674 4.04453182220459 12.56969928741455 4.258001804351807 12.56969928741455 M 18.7042121887207 7.924596309661865 C 18.72648811340332 7.924596309661865 18.74906349182129 7.926531314849854 18.77175140380859 7.930538654327393 C 18.98196220397949 7.967648983001709 19.12276268005371 8.168838500976562 19.08571243286133 8.379049301147461 L 18.48282241821289 11.79551887512207 L 17.6966724395752 11.79551887512207 L 18.32329177856445 8.244499206542969 C 18.35635566711426 8.057048797607422 18.51993179321289 7.924596309661865 18.7042121887207 7.924596309661865 M 12.12885189056396 24.14906883239746 C 7.648982048034668 24.14906883239746 3.437222003936768 22.40450859069824 0.2694118916988373 19.23674964904785 C 0.03119189105927944 18.9985294342041 -0.0999981090426445 18.68179893493652 -0.0999981090426445 18.34488868713379 C -0.0999981090426445 18.00797843933105 0.03119189105927944 17.69124794006348 0.2694118916988373 17.45302963256836 C 0.5075718760490417 17.21480941772461 0.8243119120597839 17.0836181640625 1.161271929740906 17.0836181640625 C 1.498151898384094 17.0836181640625 1.814881920814514 17.21482849121094 2.053131818771362 17.45307922363281 C 2.559596300125122 17.95954322814941 3.106741666793823 18.43088150024414 3.681327342987061 18.85578918457031 L 4.809205532073975 14.21805858612061 L 4.258001804351807 14.21805858612061 C 3.5625319480896 14.21805858612061 2.996731996536255 13.65225887298584 2.996731996536255 12.95678901672363 C 2.996731996536255 12.26131916046143 3.5625319480896 11.69551849365234 4.258001804351807 11.69551849365234 L 4.693871021270752 11.69551849365234 L 6.395380020141602 7.128978729248047 L 3.304311990737915 7.128978729248047 C 3.104781866073608 7.128978729248047 2.922271966934204 7.003968715667725 2.850151777267456 6.817898750305176 L 2.105281829833984 4.896328926086426 C 2.013871908187866 4.660658836364746 2.115481853485107 4.397688865661621 2.341631889343262 4.284658908843994 L 7.124927997589111 1.89287805557251 L 6.742392063140869 0.7452888488769531 C 6.693031787872314 0.5971188545227051 6.718071937561035 0.4330688416957855 6.809361934661865 0.3064488470554352 C 6.900591850280762 0.1797888427972794 7.048311710357666 0.1041488498449326 7.204492092132568 0.1041488498449326 C 9.749792098999023 0.1041488498449326 11.82055187225342 2.174908876419067 11.82055187225342 4.720218658447266 C 11.82055187225342 4.98879861831665 11.60204219818115 5.207308769226074 11.33346176147461 5.207308769226074 C 11.06488227844238 5.207308769226074 10.8463716506958 4.98879861831665 10.8463716506958 4.720218658447266 C 10.8463716506958 2.983870029449463 9.591983795166016 1.475566387176514 7.902703762054443 1.145524859428406 L 8.182751655578613 1.985618829727173 C 8.258892059326172 2.214108943939209 8.153882026672363 2.467618942260742 7.938491821289062 2.575308799743652 L 3.173839330673218 4.957640171051025 L 3.637878656387329 6.154798984527588 L 7.096672058105469 6.154798984527588 C 7.256151676177979 6.154798984527588 7.405702114105225 6.23301887512207 7.496721744537354 6.364028930664062 C 7.587741851806641 6.495048999786377 7.608811855316162 6.662498950958252 7.553102016448975 6.811978816986084 L 5.733473777770996 11.69551849365234 L 10.84642219543457 11.69551849365234 L 10.84642219543457 6.268678665161133 C 10.84642219543457 6.000098705291748 11.06493186950684 5.781589031219482 11.33351230621338 5.781589031219482 C 11.60209178924561 5.781589031219482 11.82060146331787 6.000098705291748 11.82060146331787 6.268678665161133 L 11.82060146331787 11.69556903839111 L 16.82661056518555 11.69556903839111 L 17.46240234375 8.092618942260742 C 17.5689525604248 7.488779067993164 18.09126281738281 7.050498962402344 18.70434188842773 7.050498962402344 C 18.77735137939453 7.050498962402344 18.85108184814453 7.056958675384521 18.92348098754883 7.06968879699707 C 19.25486183166504 7.128159046173096 19.54385185241699 7.312509059906006 19.73727226257324 7.588798999786377 C 19.9306812286377 7.865078926086426 20.00501251220703 8.199688911437988 19.94655227661133 8.530988693237305 L 19.38812446594238 11.69551849365234 L 19.99970245361328 11.69551849365234 C 20.69517135620117 11.69551849365234 21.26098251342773 12.26131916046143 21.26098251342773 12.95678901672363 C 21.26098251342773 13.65225887298584 20.69517135620117 14.21805858612061 19.99970245361328 14.21805858612061 L 19.44844818115234 14.21805858612061 L 20.57632637023926 18.85578918457031 C 21.15092277526855 18.43087959289551 21.69808959960938 17.95952224731445 22.2045726776123 17.45302963256836 C 22.4427318572998 17.21480941772461 22.75947189331055 17.0836181640625 23.09643173217773 17.0836181640625 C 23.43331146240234 17.0836181640625 23.75005149841309 17.21482849121094 23.9882926940918 17.45308876037598 C 24.22651100158691 17.69124794006348 24.35770225524902 18.00794792175293 24.35770225524902 18.34483909606934 C 24.35770225524902 18.68174934387207 24.22651100158691 18.99847793579102 23.9882926940918 19.23669815063477 C 20.82050132751465 22.40448951721191 16.60874176025391 24.14906883239746 12.12885189056396 24.14906883239746 Z M 1.161271929740906 18.05779838562012 C 1.084581851959229 18.05779838562012 1.012491941452026 18.08764839172363 0.9582818746566772 18.14185905456543 C 0.9040518999099731 18.19608879089355 0.874181866645813 18.26819801330566 0.874181866645813 18.34488868713379 C 0.874181866645813 18.42155838012695 0.9040518999099731 18.49364852905273 0.9582818746566772 18.54787826538086 C 3.942051887512207 21.53164863586426 7.909172058105469 23.17488861083984 12.12885189056396 23.17488861083984 C 16.34853172302246 23.17488861083984 20.31565093994141 21.53164863586426 23.2994213104248 18.54787826538086 C 23.35366249084473 18.49368858337402 23.38354110717773 18.42154884338379 23.38358116149902 18.34472846984863 C 23.38358116149902 18.26808929443359 23.35372161865234 18.19600868225098 23.29950141906738 18.14181900024414 C 23.24525260925293 18.08756828308105 23.17316246032715 18.05769920349121 23.09649276733398 18.05769920349121 C 23.0197811126709 18.05769920349121 22.94770240783691 18.08754920959473 22.89351272583008 18.14174842834473 C 22.17376136779785 18.86152839660645 21.38251113891602 19.51027870178223 20.54172134399414 20.06996917724609 C 20.46145248413086 20.12339973449707 20.36810111999512 20.1516284942627 20.27174186706543 20.1516284942627 C 20.21088218688965 20.1516284942627 20.1512622833252 20.14037895202637 20.09454154968262 20.11819839477539 C 19.94670104980469 20.06049919128418 19.83601188659668 19.93392944335938 19.79849243164062 19.77964973449707 L 18.4459342956543 14.21800899505615 L 17.85502815246582 14.21800899505615 L 19.35098266601562 20.36927795410156 C 19.40428161621094 20.58846855163574 19.30153274536133 20.81379890441895 19.10111236572266 20.91722869873047 C 16.96797180175781 22.01855850219727 14.55700206756592 22.60069847106934 12.12885189056396 22.60069847106934 C 9.700632095336914 22.60069847106934 7.289671897888184 22.01857948303223 5.156621932983398 20.91727828979492 C 4.956222057342529 20.81380844116211 4.853481769561768 20.5884895324707 4.906781673431396 20.36932945251465 L 6.402735710144043 14.21811866760254 L 5.811829090118408 14.21811866760254 L 4.459271907806396 19.77974891662598 C 4.42169189453125 19.93402862548828 4.311011791229248 20.06058883666992 4.163181781768799 20.11832809448242 C 4.106401920318604 20.14044952392578 4.046822071075439 20.15164947509766 3.986011981964111 20.15164947509766 C 3.889611959457397 20.15164947509766 3.796261787414551 20.12344932556152 3.71606183052063 20.07008934020996 C 2.875271797180176 19.51038932800293 2.084021806716919 18.86165809631348 1.364261865615845 18.14189910888672 C 1.310031890869141 18.08766937255859 1.237941861152649 18.05779838562012 1.161271929740906 18.05779838562012 Z M 5.94512939453125 20.22233772277832 C 7.873355388641357 21.15415382385254 9.953338623046875 21.62651824951172 12.12885189056396 21.62651824951172 C 14.30436515808105 21.62651824951172 16.38434791564941 21.15415382385254 18.31258392333984 20.22233581542969 L 16.85240364074707 14.21806907653809 L 7.405299663543701 14.21806907653809 L 5.94512939453125 20.22233772277832 Z M 4.258001804351807 12.66969871520996 C 4.099701881408691 12.66969871520996 3.970911979675293 12.79848861694336 3.970911979675293 12.95678901672363 C 3.970911979675293 13.11508846282959 4.099701881408691 13.2438793182373 4.258001804351807 13.2438793182373 L 19.99970245361328 13.2438793182373 C 20.15801239013672 13.2438793182373 20.28680229187012 13.11508846282959 20.28680229187012 12.95678901672363 C 20.28680229187012 12.79848861694336 20.15801239013672 12.66969871520996 19.99970245361328 12.66969871520996 L 18.80628204345703 12.66969871520996 L 5.029861927032471 12.66969871520996 L 4.258001804351807 12.66969871520996 Z M 17.81586456298828 11.69551849365234 L 18.39892196655273 11.69551849365234 L 18.98723220825195 8.361668586730957 C 19.01471138000488 8.205768585205078 18.91025161743164 8.056538581848145 18.75437164306641 8.029018402099609 C 18.73777198791504 8.026088714599609 18.72091102600098 8.024599075317383 18.7042121887207 8.024599075317383 C 18.5648021697998 8.024599075317383 18.44602203369141 8.124388694763184 18.42177200317383 8.261868476867676 L 17.81586456298828 11.69551849365234 Z" stroke="none" fill="#fff"/>
      </g>
      <g id="Ellipse_32" data-name="Ellipse 32" transform="translate(7.334 3.871)" fill="#fff" stroke="#fff" stroke-width="0.1">
        <circle cx="0.387" cy="0.387" r="0.387" stroke="none"/>
        <circle cx="0.387" cy="0.387" r="0.437" fill="none"/>
      </g>
    </g>
  </g>
</svg>
