<svg xmlns="http://www.w3.org/2000/svg" width="14.638" height="11" viewBox="0 0 14.638 11">
  <path id="Path_187" data-name="Path 187" d="M8.5,3a7.281,7.281,0,0,1,7.319,5.5A7.28,7.28,0,0,1,8.5,14,7.281,7.281,0,0,1,1.181,8.5,7.28,7.28,0,0,1,8.5,3Zm0,9.778A5.993,5.993,0,0,0,14.437,8.5,5.994,5.994,0,0,0,8.5,4.229,6,6,0,0,0,2.562,8.5,5.993,5.993,0,0,0,8.5,12.778Zm0-1.528A2.908,2.908,0,0,1,5.456,8.5,2.908,2.908,0,0,1,8.5,5.75,2.908,2.908,0,0,1,11.544,8.5,2.908,2.908,0,0,1,8.5,11.25Zm0-1.222A1.616,1.616,0,0,0,10.191,8.5,1.616,1.616,0,0,0,8.5,6.972,1.616,1.616,0,0,0,6.809,8.5,1.616,1.616,0,0,0,8.5,10.028Z" transform="translate(-1.181 -3)"/>
</svg>
