<svg xmlns="http://www.w3.org/2000/svg" width="19.541" height="19.541" viewBox="0 0 19.541 19.541">
  <g id="Group_468" data-name="Group 468" opacity="0.7">
    <path id="Path_231" data-name="Path 231" d="M0,0H19.541V19.541H0Z" fill="none"/>
    <path id="Path_232" data-name="Path 232" d="M7.071,3.907H17.656V5.536H7.071ZM4.221,5.943A1.221,1.221,0,1,1,5.443,4.721,1.221,1.221,0,0,1,4.221,5.943Zm0,5.7a1.221,1.221,0,1,1,1.221-1.221A1.221,1.221,0,0,1,4.221,11.642Zm0,5.618a1.221,1.221,0,1,1,1.221-1.221A1.221,1.221,0,0,1,4.221,17.26Zm2.85-7.654H17.656v1.628H7.071Zm0,5.7H17.656v1.628H7.071Z" transform="translate(-0.557 -0.65)"/>
  </g>
</svg>
