<svg xmlns="http://www.w3.org/2000/svg" width="38" height="38" viewBox="0 0 38 38">
  <g id="Group_435" data-name="Group 435" transform="translate(0)" opacity="0.54">
    <path id="Path_227" data-name="Path 227" d="M0,0H38V38H0Z" transform="translate(0)" fill="none"/>
    <path id="Path_228" data-name="Path 228" d="M29.917,3A1.584,1.584,0,0,1,31.5,4.583V7.365l-3.167,3.167V6.167H6.167V18.992L12.5,12.658l6.853,6.854-2.24,2.237L12.5,17.139,6.167,23.471v4.862H22.844l1.121,0,2.1-2.106,2.106,2.1h.158V23.967L31.5,20.8v9.117A1.584,1.584,0,0,1,29.917,31.5H4.583A1.588,1.588,0,0,1,3,29.917V4.583A1.584,1.584,0,0,1,4.583,3Zm2.815,7.613,2.239,2.239L22.656,25.167l-2.242,0,0-2.236L32.732,10.613Zm-9.94-1.279a2.375,2.375,0,1,1-2.375,2.375A2.376,2.376,0,0,1,22.792,9.333Z" transform="translate(1.75 1.75)"/>
  </g>
</svg>
