<svg id="popcorn" xmlns="http://www.w3.org/2000/svg" width="25.652" height="25.469" viewBox="0 0 25.652 25.469">
  <g id="Group_241" data-name="Group 241" transform="translate(0 5.328)">
    <g id="Group_240" data-name="Group 240">
      <path id="Path_152" data-name="Path 152" d="M26.153,110.736a1.565,1.565,0,0,0-2.579-1.192,1.565,1.565,0,0,0-1.033,2.954,1.565,1.565,0,0,0,3.065-.574A1.567,1.567,0,0,0,26.153,110.736Zm-1.2.649-.288.162.1.316a.744.744,0,1,1-1.453.274l-.024-.328-.326-.048a.744.744,0,1,1,.5-1.372l.316.193.224-.295a.744.744,0,1,1,.957,1.1Z" transform="translate(-21.504 -109.171)" fill="#fff"/>
    </g>
  </g>
  <g id="Group_243" data-name="Group 243" transform="translate(4.48 0.848)">
    <g id="Group_242" data-name="Group 242" transform="translate(0)">
      <path id="Path_153" data-name="Path 153" d="M107.951,16.939a1.441,1.441,0,0,0-2.354-1.113,1.44,1.44,0,0,0-1.874,1.517,1.44,1.44,0,0,0,1.829,2.155,1.44,1.44,0,0,0,1.919-1.358q0-.062-.005-.123A1.442,1.442,0,0,0,107.951,16.939Zm-1.137.541-.288.162.1.316a.62.62,0,0,1-.9.718l-.251-.147-.222.188a.611.611,0,0,1-.4.147.619.619,0,0,1-.411-1.083l.192-.17-.069-.247a.62.62,0,0,1,.919-.7l.316.193.224-.295a.62.62,0,1,1,.8.915Z" transform="translate(-103.406 -15.499)" fill="#fff"/>
    </g>
  </g>
  <g id="Group_245" data-name="Group 245" transform="translate(21.107 3.848)">
    <g id="Group_244" data-name="Group 244">
      <path id="Path_154" data-name="Path 154" d="M411.947,72.444a2.124,2.124,0,0,0-4.229.4,1.916,1.916,0,0,0,3.748.8c0-.041,0-.082-.005-.123A1.442,1.442,0,0,0,411.947,72.444Zm-1.137.541-.288.162.1.316a.62.62,0,0,1-.9.718l-.251-.147-.222.188a.611.611,0,0,1-.4.147.619.619,0,0,1-.411-1.083l.192-.17-.069-.247a.62.62,0,0,1,.919-.7l.316.193.224-.3a.62.62,0,1,1,.8.915Z" transform="translate(-407.402 -71.004)" fill="#fff"/>
    </g>
  </g>
  <g id="Group_247" data-name="Group 247" transform="translate(17.012 0)">
    <g id="Group_246" data-name="Group 246" transform="translate(0)">
      <path id="Path_155" data-name="Path 155" d="M336.806,1.781a1.551,1.551,0,0,0-.878-.629,1.565,1.565,0,0,0-3.024.806,1.571,1.571,0,0,0-.1,1.894,1.554,1.554,0,0,0,1,.658,1.58,1.58,0,0,0,.3.028,1.569,1.569,0,0,0,1-.367,1.567,1.567,0,0,0,1.29-.215h0A1.566,1.566,0,0,0,336.806,1.781ZM336.243,2.8a.74.74,0,0,1-.313.476h0a.746.746,0,0,1-.751.05l-.3-.147-.207.258a.748.748,0,0,1-.163.15.744.744,0,0,1-.88-1.2l.258-.2-.143-.3A.748.748,0,0,1,334,.949a.739.739,0,0,1,.417-.129.753.753,0,0,1,.141.013.745.745,0,0,1,.6.693l.018.37.37.02a.744.744,0,0,1,.693.883Z" transform="translate(-332.532 0)" fill="#fff"/>
    </g>
  </g>
  <g id="Group_249" data-name="Group 249" transform="translate(3.839 3.556)">
    <g id="Group_248" data-name="Group 248" transform="translate(0)">
      <path id="Path_156" data-name="Path 156" d="M109.237,72.149a1.186,1.186,0,0,0-.147-.568,1.173,1.173,0,0,0,.147-.57,1.337,1.337,0,0,0-1.156-1.265,1.173,1.173,0,0,0,.117-.508,1.373,1.373,0,0,0-1.44-1.291,1.576,1.576,0,0,0-.619.126,2,2,0,0,0-1.3-.469,2.094,2.094,0,0,0-.373.033,1.445,1.445,0,0,0-.38-.243,1.333,1.333,0,0,0,.452-.986,1.492,1.492,0,0,0-1.565-1.4,1.662,1.662,0,0,0-1.014.334,1.732,1.732,0,0,0-.506-.075,1.689,1.689,0,0,0-.851.225,1.708,1.708,0,0,0-1.953-.14,1.349,1.349,0,0,0-.653,1.443A1.364,1.364,0,0,0,96.826,67.9a1.819,1.819,0,0,0-.6-.053,1.74,1.74,0,0,0-.875.293,1.6,1.6,0,0,0-.447-.063,1.373,1.373,0,0,0-1.44,1.291,1.157,1.157,0,0,0,.007.131,1.211,1.211,0,0,0-.316.807,1.185,1.185,0,0,0,.161.6,1.481,1.481,0,0,0-1.474,1.4,1.325,1.325,0,0,0,.4.936,2.067,2.067,0,0,0-.545,1.575l2.232,12.1h12.838L109,74.845l0-.03a2.028,2.028,0,0,0-.294-1.24,1.279,1.279,0,0,0,.051-.35q0-.055-.005-.11A1.239,1.239,0,0,0,109.237,72.149ZM94.626,86.183h0L92.515,74.741a1.372,1.372,0,0,1,.432-1.106,1.721,1.721,0,0,1,1.211-.476h.017a1.572,1.572,0,0,1,1.646,1.419v.007l0,.044q0,.045,0,.09l1.016,11.462H94.626Zm3.039,0L96.645,74.6a1.389,1.389,0,0,1,.46-.993,1.73,1.73,0,0,1,1.187-.453,1.57,1.57,0,0,1,1.647,1.476V86.183Zm3.094,0h0V74.635a1.57,1.57,0,0,1,1.647-1.476,1.73,1.73,0,0,1,1.187.453,1.389,1.389,0,0,1,.46.993l-1.02,11.578Zm7.424-11.442-2.111,11.442h-2.216l1.015-11.447V74.72q0-.045,0-.09l0-.037v-.015a1.572,1.572,0,0,1,1.646-1.419h.017a1.721,1.721,0,0,1,1.211.476A1.372,1.372,0,0,1,108.183,74.741Zm-.084-2.108-.252.127a2.688,2.688,0,0,0-1.307-.336h-.017a2.544,2.544,0,0,0-2.06.99,2.312,2.312,0,0,0-.28-.312,2.591,2.591,0,0,0-1.778-.678,2.551,2.551,0,0,0-2.057.992,2.551,2.551,0,0,0-2.057-.992,2.591,2.591,0,0,0-1.778.678,2.308,2.308,0,0,0-.28.312,2.544,2.544,0,0,0-2.06-.99h-.017a2.69,2.69,0,0,0-1.3.331.631.631,0,0,1-.2-.451.71.71,0,0,1,.744-.667.809.809,0,0,1,.387.1l.316.172.224-.264a.725.725,0,0,1,.178-.15l.7-.425-.806-.23a.563.563,0,0,1-.431-.529.533.533,0,0,1,.209-.416l.192-.153-.069-.221a.5.5,0,0,1-.023-.149.591.591,0,0,1,.62-.555.671.671,0,0,1,.322.08l.316.173.224-.265a.768.768,0,0,1,.529-.221,1.165,1.165,0,0,1,.788.281,1.261,1.261,0,0,0,.138.092l.319.173.22-.266.2-.237-.2-.223a.515.515,0,0,1-.132-.342.59.59,0,0,1,.613-.555l.231.012.132-.154a.7.7,0,0,1,.127-.116L99,67.064l-.143-.266a.631.631,0,0,1,.252-.841.8.8,0,0,1,1.034.177.615.615,0,0,1,.04.061l.293.5.393-.445a.776.776,0,0,1,.584-.254.809.809,0,0,1,.387.1l.316.172.224-.264a.773.773,0,0,1,.593-.264.71.71,0,0,1,.744.667.66.66,0,0,1-.38.581l-.288.145.1.283a.617.617,0,0,1,.033.19c0,.01,0,.02,0,.03v.322l.356.043a.628.628,0,0,1,.439.252l.179.252.312-.106a1.165,1.165,0,0,1,.375-.061,1.1,1.1,0,0,1,.886.424l.266.356.352-.289a.661.661,0,0,1,.42-.147.591.591,0,0,1,.62.555.551.551,0,0,1-.317.485l-.29.146.1.284a.46.46,0,0,1,.021.092l.071.546.536-.267a.674.674,0,0,1,.3-.069.591.591,0,0,1,.62.555.515.515,0,0,1-.132.343l-.2.227.2.227a.512.512,0,0,1,.131.342A.551.551,0,0,1,108.1,72.633Z" transform="translate(-91.69 -65.005)" fill="#fff"/>
    </g>
  </g>
  <g id="Group_251" data-name="Group 251" transform="translate(9.462 6.619)">
    <g id="Group_250" data-name="Group 250" transform="translate(0)">
      <path id="Path_157" data-name="Path 157" d="M198.931,134.941a1.2,1.2,0,0,0-.354.053,4.5,4.5,0,0,0-4.077,2.244h.82a.709.709,0,0,1,.907-.683l.589.168-.068-.609a.719.719,0,0,1,0-.08.711.711,0,0,1,1.341-.328l.227.433.387-.3a.379.379,0,0,1,.233-.08.383.383,0,0,1,.383.383h.82A1.2,1.2,0,0,0,198.931,134.941Z" transform="translate(-194.501 -134.503)" fill="#fff"/>
    </g>
  </g>
  <g id="Group_253" data-name="Group 253" transform="translate(13.729 8.399)">
    <g id="Group_252" data-name="Group 252" transform="translate(0)">
      <path id="Path_158" data-name="Path 158" d="M275.4,170a1.427,1.427,0,0,0-1.046.46,1.395,1.395,0,0,0-1.853,1.317h.82a.575.575,0,0,1,.574-.574.568.568,0,0,1,.344.115l.4.3.215-.455a.6.6,0,0,1,1.145.256h.82A1.424,1.424,0,0,0,275.4,170Z" transform="translate(-272.501 -170.003)" fill="#fff"/>
    </g>
  </g>
  <g id="Group_255" data-name="Group 255" transform="translate(5.486 12.763)">
    <g id="Group_254" data-name="Group 254" transform="translate(0 0)">
      <rect id="Rectangle_133" data-name="Rectangle 133" width="0.82" height="3.228" transform="translate(0 0.134) rotate(-9.393)" fill="#fff"/>
    </g>
  </g>
  <g id="Group_257" data-name="Group 257" transform="translate(6.781 19.523)">
    <g id="Group_256" data-name="Group 256" transform="translate(0 0)">
      <rect id="Rectangle_134" data-name="Rectangle 134" width="0.82" height="2.014" transform="matrix(0.987, -0.163, 0.163, 0.987, 0, 0.134)" fill="#fff"/>
    </g>
  </g>
  <g id="Group_259" data-name="Group 259" transform="translate(13.731 21.14)">
    <g id="Group_258" data-name="Group 258" transform="translate(0 0)">
      <rect id="Rectangle_135" data-name="Rectangle 135" width="1.068" height="0.82" transform="translate(0 1.064) rotate(-85.458)" fill="#fff"/>
    </g>
  </g>
  <g id="Group_261" data-name="Group 261" transform="translate(14.072 15.561)">
    <g id="Group_260" data-name="Group 260" transform="translate(0 0)">
      <rect id="Rectangle_136" data-name="Rectangle 136" width="3.128" height="0.82" transform="translate(0 3.118) rotate(-85.458)" fill="#fff"/>
    </g>
  </g>
  <g id="Group_263" data-name="Group 263" transform="translate(14.419 12.877)">
    <g id="Group_262" data-name="Group 262" transform="translate(0 0)">
      <rect id="Rectangle_137" data-name="Rectangle 137" width="1.819" height="0.82" transform="translate(0 1.814) rotate(-85.458)" fill="#fff"/>
    </g>
  </g>
</svg>
