<?xml version="1.0" encoding="utf-8"?>
<!-- Generator: Adobe Illustrator 23.1.1, SVG Export Plug-In . SVG Version: 6.00 Build 0)  -->
<svg version="1.1" id="Layer_1" xmlns="http://www.w3.org/2000/svg" xmlns:xlink="http://www.w3.org/1999/xlink" x="0px" y="0px"
	 viewBox="0 0 20 20" style="enable-background:new 0 0 20 20;" xml:space="preserve">
<style type="text/css">
	.st0{opacity:0.7;}
	.st1{fill:none;}
	.st2{fill:#000;}
</style>
<g id="Component_5_18" class="st0">
	<path id="Path_180" class="st1" d="M0,0h20v20H0V0z"/>
	<path id="Path_181" class="st2" d="M14.9,13.7l3.4,3.4l-1.1,1.1l-3.4-3.4c-3.1,2.5-7.7,2-10.2-1.1s-2-7.7,1.1-10.2s7.7-2,10.2,1.1
		C17,7.4,17,11.1,14.9,13.7L14.9,13.7z M13.3,13.1c2.2-2.2,2.1-5.8-0.1-7.9S7.4,3.1,5.2,5.3s-2.1,5.8,0.1,7.9c2.2,2.1,5.6,2.1,7.8,0
		L13.3,13.1z"/>
</g>
</svg>
