<svg xmlns="http://www.w3.org/2000/svg" xmlns:xlink="http://www.w3.org/1999/xlink" width="26.396" height="26.396" viewBox="0 0 26.396 26.396">
  <defs>
    <clipPath id="clip-path">
      <rect id="Rectangle_386" data-name="Rectangle 386" width="26.396" height="26.396" fill="#fff"/>
    </clipPath>
  </defs>
  <g id="Mask_Group_71" data-name="Mask Group 71" clip-path="url(#clip-path)">
    <g id="skincare" transform="translate(2.382 0.513)">
      <path id="Path_283" data-name="Path 283" d="M12.834.934A.423.423,0,0,0,12.525.8h-9.3a.423.423,0,0,0-.422.45L4.069,20.687v3.369A2.117,2.117,0,0,0,6.183,26.17H21.828a2.117,2.117,0,0,0,2.114-2.114v-5.92A2.117,2.117,0,0,0,22.673,16.2V14.754a4.73,4.73,0,0,0-1.621-3.619,5.433,5.433,0,0,0-1.619-1.008.408.408,0,0,0-.529.226,2.114,2.114,0,0,1-.827.739,7.624,7.624,0,0,1-3.807.772,7.709,7.709,0,0,0-2.03.237L12.947,1.25a.423.423,0,0,0-.113-.317Zm-.76.712-.055.846H3.729l-.055-.846ZM9.565,23.633V18.559H23.1v5.074Zm-2.537,0V23.21a.423.423,0,0,1,.423-.423H8.3a.423.423,0,0,1,.423.423v.423ZM8.72,22.015a1.263,1.263,0,0,0-.423-.073H7.451A1.27,1.27,0,0,0,6.183,23.21v.423H4.914V21.1H8.72ZM4.987,24.479H8.762a2.106,2.106,0,0,0,.381.846H6.183a1.271,1.271,0,0,1-1.2-.846Zm16.841.846H10.834a1.271,1.271,0,0,1-1.2-.846H23.023a1.271,1.271,0,0,1-1.2.846Zm1.2-7.611H9.638a1.271,1.271,0,0,1,1.2-.846H21.828a1.271,1.271,0,0,1,1.2.846Zm-12.19-1.691v-.846H21.828v.846ZM18.6,11.767a3.31,3.31,0,0,0,.846-.712,4.878,4.878,0,0,1,1.069.73,3.83,3.83,0,0,1,1.3,2.545H10.857a1.473,1.473,0,0,1,.341-.7,4.059,4.059,0,0,1,3.072-.922A8.371,8.371,0,0,0,18.6,11.767ZM10.541,13.1a2.3,2.3,0,0,0-.549,1.6.425.425,0,0,0,0,.055V16.2A2.117,2.117,0,0,0,8.72,18.136v2.114H4.888L3.784,3.337h8.179l-.594,9.1a2.823,2.823,0,0,0-.828.657Z" transform="translate(-2.8 -0.8)" fill="#fff"/>
      <path id="Path_284" data-name="Path 284" d="M18.042,18.806a5.906,5.906,0,0,0-2.259-.406,5.906,5.906,0,0,0-2.259.406c-.977.419-1.123.985-1.123,1.286s.146.867,1.123,1.286a5.906,5.906,0,0,0,2.259.406,5.906,5.906,0,0,0,2.259-.406c.977-.419,1.123-.985,1.123-1.286S19.019,19.225,18.042,18.806Zm-2.259,2.131c-1.574,0-2.537-.548-2.537-.846s.963-.846,2.537-.846,2.537.548,2.537.846S17.356,20.937,15.783,20.937Z" transform="translate(-2.252 0.205)" fill="#fff"/>
      <path id="Path_285" data-name="Path 285" d="M10.3,4H5.223a.423.423,0,0,0-.423.423V6.96a.423.423,0,0,0,.423.423H10.3a.423.423,0,0,0,.423-.423V4.423A.423.423,0,0,0,10.3,4ZM9.874,6.537H5.646V4.846H9.874Z" transform="translate(-2.686 -0.617)" fill="#fff"/>
      <path id="Path_286" data-name="Path 286" d="M9.406,8H6.023a.423.423,0,0,0,0,.846H9.406a.423.423,0,0,0,0-.846Z" transform="translate(-2.64 -0.389)" fill="#fff"/>
    </g>
  </g>
</svg>
