<svg xmlns="http://www.w3.org/2000/svg" width="121.023" height="119.767" viewBox="0 0 121.023 119.767">
  <path id="Path_242" data-name="Path 242" d="M62.517,12.907a34.581,34.581,0,0,1,49.873,1.477c13.688,14.695,14.159,38.1,1.428,53.362L62.5,122.767,11.2,67.746C-1.528,52.481-1.05,29.04,12.632,14.384,26.337-.285,48.26-.777,62.517,12.907Zm41.3,10.632a23.049,23.049,0,0,0-33.22-.991L62.523,30.31l-8.084-7.756a23.055,23.055,0,0,0-33.245,1A27.264,27.264,0,0,0,20.032,58.87l42.478,45.555,42.478-45.549a27.27,27.27,0,0,0-1.168-35.337Z" transform="translate(-2 -3)" fill="#d0a264"/>
</svg>
