<svg xmlns="http://www.w3.org/2000/svg" width="25.242" height="25.242" viewBox="0 0 25.242 25.242">
  <g id="Path_147" data-name="Path 147" fill="#fff">
    <path d="M 18.04422187805176 25.14218330383301 L 7.197962760925293 25.14218330383301 C 5.486092567443848 25.14218330383301 4.093392848968506 23.74948310852051 4.093392848968506 22.03761291503906 L 4.093392848968506 13.31131267547607 L 4.093392848968506 13.21131324768066 L 3.993392705917358 13.21131324768066 L 2.711562871932983 13.21131324768066 C 1.27154278755188 13.21131324768066 0.10000279545784 12.03976249694824 0.10000279545784 10.5997428894043 C 0.10000279545784 9.159722328186035 1.27154278755188 7.98818302154541 2.711562871932983 7.98818302154541 C 3.174472808837891 7.98818302154541 3.551082849502563 7.611572742462158 3.551082849502563 7.148662567138672 L 3.551082849502563 5.669632911682129 C 3.551082849502563 5.317002773284912 3.83797287940979 5.030112743377686 4.190602779388428 5.030112743377686 C 4.543232917785645 5.030112743377686 4.830112934112549 5.317002773284912 4.830112934112549 5.669632911682129 L 4.830112934112549 7.148662567138672 C 4.830112934112549 8.316843032836914 3.879732847213745 9.26722240447998 2.711562871932983 9.26722240447998 C 1.976802825927734 9.26722240447998 1.379032850265503 9.864993095397949 1.379032850265503 10.5997428894043 C 1.379032850265503 11.33450317382812 1.976802825927734 11.93227291107178 2.711562871932983 11.93227291107178 L 4.621982574462891 11.93227291107178 L 4.637222766876221 11.93227291107178 L 4.651782989501953 11.92773246765137 C 6.354952812194824 11.39610290527344 7.544472694396973 9.779562950134277 7.544472694396973 7.996592998504639 L 7.544472694396973 5.176622867584229 C 7.544472694396973 2.377362728118896 9.821832656860352 0.10000279545784 12.62109279632568 0.10000279545784 C 15.42035293579102 0.10000279545784 17.69771194458008 2.377362728118896 17.69771194458008 5.176622867584229 L 17.69771194458008 7.996592998504639 C 17.69771194458008 9.779562950134277 18.88723373413086 11.39610290527344 20.59040260314941 11.92773246765137 L 20.6049633026123 11.93227291107178 L 20.62020301818848 11.93227291107178 L 22.5306224822998 11.93227291107178 C 23.26538276672363 11.93227291107178 23.8631534576416 11.33450317382812 23.8631534576416 10.5997428894043 C 23.8631534576416 9.864993095397949 23.26538276672363 9.26722240447998 22.5306224822998 9.26722240447998 C 21.36245346069336 9.26722240447998 20.41207313537598 8.316843032836914 20.41207313537598 7.148662567138672 L 20.41207313537598 5.669632911682129 C 20.41207313537598 5.317002773284912 20.6989631652832 5.030112743377686 21.05159187316895 5.030112743377686 C 21.40422248840332 5.030112743377686 21.69110298156738 5.317002773284912 21.69110298156738 5.669632911682129 L 21.69110298156738 7.148662567138672 C 21.69110298156738 7.611572742462158 22.06771278381348 7.98818302154541 22.5306224822998 7.98818302154541 C 23.97064208984375 7.98818302154541 25.14218330383301 9.159722328186035 25.14218330383301 10.5997428894043 C 25.14218330383301 12.03976249694824 23.97064208984375 13.21131324768066 22.5306224822998 13.21131324768066 L 21.24879264831543 13.21131324768066 L 21.1487922668457 13.21131324768066 L 21.1487922668457 13.31131267547607 L 21.1487922668457 22.03761291503906 C 21.1487922668457 23.74948310852051 19.7560920715332 25.14218330383301 18.04422187805176 25.14218330383301 Z M 8.817012786865234 8.281192779541016 L 8.810623168945312 8.37435245513916 C 8.739242553710938 9.415513038635254 8.367312431335449 10.40891265869141 7.735032558441162 11.24714279174805 C 7.140242576599121 12.03565311431885 6.345032691955566 12.64420318603516 5.435372829437256 13.00702285766602 L 5.372422695159912 13.03212261199951 L 5.372422695159912 13.09990310668945 L 5.372422695159912 22.03761291503906 C 5.372422695159912 23.04422187805176 6.191352844238281 23.8631534576416 7.197962760925293 23.8631534576416 L 18.04422187805176 23.8631534576416 C 19.05082321166992 23.8631534576416 19.86975288391113 23.04422187805176 19.86975288391113 22.03761291503906 L 19.86975288391113 13.09990310668945 L 19.86975288391113 13.03212261199951 L 19.80679321289062 13.00701236724854 C 18.89714241027832 12.64425277709961 18.10194206237793 12.03569316864014 17.50715255737305 11.24714279174805 C 16.8748836517334 10.40898323059082 16.50294303894043 9.415582656860352 16.43156242370605 8.37435245513916 L 16.42517280578613 8.281192779541016 L 16.3317928314209 8.281192779541016 L 8.910392761230469 8.281192779541016 L 8.817012786865234 8.281192779541016 Z M 12.62109279632568 1.379032850265503 C 10.52709293365479 1.379032850265503 8.823502540588379 3.082622766494751 8.823502540588379 5.176622867584229 L 8.823502540588379 6.902163028717041 L 8.823502540588379 7.002162933349609 L 8.923502922058105 7.002162933349609 L 16.31868362426758 7.002162933349609 L 16.41868209838867 7.002162933349609 L 16.41868209838867 6.902163028717041 L 16.41868209838867 5.176622867584229 C 16.41868209838867 3.082622766494751 14.71509265899658 1.379032850265503 12.62109279632568 1.379032850265503 Z" stroke="none"/>
    <path d="M 12.62109279632568 0.2000026702880859 C 9.876973152160645 0.2000026702880859 7.644472122192383 2.432502746582031 7.644472122192383 5.17662239074707 L 7.644472122192383 7.996593475341797 C 7.644472122192383 9.82286262512207 6.426082611083984 11.47866249084473 4.681571960449219 12.02319240570068 L 4.652473449707031 12.03227233886719 L 4.621982574462891 12.03227233886719 L 2.711563110351562 12.03227233886719 C 1.921663284301758 12.03227233886719 1.279033660888672 11.3896427154541 1.279033660888672 10.5997428894043 C 1.279033660888672 9.809852600097656 1.921663284301758 9.16722297668457 2.711563110351562 9.16722297668457 C 3.824592590332031 9.16722297668457 4.730112075805664 8.261703491210938 4.730112075805664 7.148662567138672 L 4.730112075805664 5.669631958007812 C 4.730112075805664 5.372142791748047 4.488082885742188 5.13011360168457 4.190593719482422 5.13011360168457 C 3.893102645874023 5.13011360168457 3.651082992553711 5.372142791748047 3.651082992553711 5.669631958007812 L 3.651082992553711 7.148662567138672 C 3.651082992553711 7.666713714599609 3.229612350463867 8.08818244934082 2.711563110351562 8.08818244934082 C 1.326683044433594 8.08818244934082 0.2000026702880859 9.214862823486328 0.2000026702880859 10.5997428894043 C 0.2000026702880859 11.98462295532227 1.326683044433594 13.11131286621094 2.711563110351562 13.11131286621094 L 3.993392944335938 13.11131286621094 L 4.193393707275391 13.11131286621094 L 4.193393707275391 13.31131267547607 L 4.193393707275391 22.03761291503906 C 4.193393707275391 23.69434356689453 5.541233062744141 25.04218292236328 7.197963714599609 25.04218292236328 L 18.04422378540039 25.04218292236328 C 19.70095252990723 25.04218292236328 21.04879379272461 23.69434356689453 21.04879379272461 22.03761291503906 L 21.04879379272461 13.31131267547607 L 21.04879379272461 13.11131286621094 L 21.24879264831543 13.11131286621094 L 22.5306224822998 13.11131286621094 C 23.91550254821777 13.11131286621094 25.04218292236328 11.98462295532227 25.04218292236328 10.5997428894043 C 25.04218292236328 9.214862823486328 23.91550254821777 8.08818244934082 22.5306224822998 8.08818244934082 C 22.0125732421875 8.08818244934082 21.59110260009766 7.666713714599609 21.59110260009766 7.148662567138672 L 21.59110260009766 5.669631958007812 C 21.59110260009766 5.372142791748047 21.34908294677734 5.13011360168457 21.05159378051758 5.13011360168457 C 20.75410270690918 5.13011360168457 20.5120735168457 5.372142791748047 20.5120735168457 5.669631958007812 L 20.5120735168457 7.148662567138672 C 20.5120735168457 8.261703491210938 21.41759300231934 9.16722297668457 22.5306224822998 9.16722297668457 C 23.32052230834961 9.16722297668457 23.9631519317627 9.809852600097656 23.9631519317627 10.5997428894043 C 23.9631519317627 11.3896427154541 23.32052230834961 12.03227233886719 22.5306224822998 12.03227233886719 L 20.62020301818848 12.03227233886719 L 20.58971214294434 12.03227233886719 L 20.56061172485352 12.02319240570068 C 18.81610298156738 11.47866249084473 17.59771347045898 9.82286262512207 17.59771347045898 7.996593475341797 L 17.59771347045898 5.17662239074707 C 17.59771347045898 2.432502746582031 15.36521244049072 0.2000026702880859 12.62109279632568 0.2000026702880859 M 16.5186824798584 7.102163314819336 L 16.31868362426758 7.102163314819336 L 8.923501968383789 7.102163314819336 L 8.723503112792969 7.102163314819336 L 8.723503112792969 6.902162551879883 L 8.723503112792969 5.17662239074707 C 8.723503112792969 3.027482986450195 10.47195243835449 1.279033660888672 12.62109279632568 1.279033660888672 C 14.77023315429688 1.279033660888672 16.5186824798584 3.027482986450195 16.5186824798584 5.17662239074707 L 16.5186824798584 6.902162551879883 L 16.5186824798584 7.102163314819336 M 18.04422378540039 23.9631519317627 L 7.197963714599609 23.9631519317627 C 6.136213302612305 23.9631519317627 5.272422790527344 23.09936332702637 5.272422790527344 22.03761291503906 L 5.272422790527344 13.09990310668945 L 5.272422790527344 12.96435260772705 L 5.398332595825195 12.91413307189941 C 6.29100227355957 12.55809307098389 7.071422576904297 11.9608325958252 7.655202865600586 11.18692302703857 C 8.275762557983398 10.36421298980713 8.640802383422852 9.389283180236816 8.71086311340332 8.367513656616211 L 8.7236328125 8.181192398071289 L 8.910392761230469 8.181192398071289 L 16.3317928314209 8.181192398071289 L 16.51855278015137 8.181192398071289 L 16.53132247924805 8.367513656616211 C 16.60138320922852 9.38934326171875 16.96642303466797 10.36428260803223 17.58698272705078 11.18692302703857 C 18.17076301574707 11.96088314056396 18.951171875 12.55813312530518 19.84384346008301 12.91413307189941 L 19.96975326538086 12.96434307098389 L 19.96975326538086 13.09990310668945 L 19.96975326538086 22.03761291503906 C 19.96975326538086 23.09936332702637 19.1059627532959 23.9631519317627 18.04422378540039 23.9631519317627 M 12.62109279632568 1.9073486328125e-06 C 15.47548294067383 1.9073486328125e-06 17.7977123260498 2.322233200073242 17.7977123260498 5.17662239074707 L 17.7977123260498 7.996593475341797 C 17.7977123260498 9.749153137207031 18.9537239074707 11.31210327148438 20.62020301818848 11.83227252960205 L 22.5306224822998 11.83227252960205 C 23.21024322509766 11.83227252960205 23.76315307617188 11.27936267852783 23.76315307617188 10.5997428894043 C 23.76315307617188 9.920132637023926 23.21024322509766 9.367222785949707 22.5306224822998 9.367222785949707 C 21.30731201171875 9.367222785949707 20.31207275390625 8.371973037719727 20.31207275390625 7.148662567138672 L 20.31207275390625 5.669631958007812 C 20.31207275390625 5.261222839355469 20.64317321777344 4.930112838745117 21.05159378051758 4.930112838745117 C 21.46000289916992 4.930112838745117 21.79110336303711 5.261222839355469 21.79110336303711 5.669631958007812 L 21.79110336303711 7.148662567138672 C 21.79110336303711 7.556432723999023 22.12285232543945 7.88818359375 22.5306224822998 7.88818359375 C 24.02577209472656 7.88818359375 25.24218368530273 9.104593276977539 25.24218368530273 10.5997428894043 C 25.24218368530273 12.09490299224854 24.02577209472656 13.31131267547607 22.5306224822998 13.31131267547607 L 21.24879264831543 13.31131267547607 L 21.24879264831543 22.03761291503906 C 21.24879264831543 23.80461311340332 19.81122207641602 25.24218368530273 18.04422378540039 25.24218368530273 L 7.197963714599609 25.24218368530273 C 5.430963516235352 25.24218368530273 3.993392944335938 23.80461311340332 3.993392944335938 22.03761291503906 L 3.993392944335938 13.31131267547607 L 2.711563110351562 13.31131267547607 C 1.216402053833008 13.31131267547607 1.9073486328125e-06 12.09490299224854 1.9073486328125e-06 10.5997428894043 C 1.9073486328125e-06 9.104593276977539 1.216402053833008 7.88818359375 2.711563110351562 7.88818359375 C 3.119333267211914 7.88818359375 3.451082229614258 7.556432723999023 3.451082229614258 7.148662567138672 L 3.451082229614258 5.669631958007812 C 3.451082229614258 5.261222839355469 3.782182693481445 4.930112838745117 4.190593719482422 4.930112838745117 C 4.59901237487793 4.930112838745117 4.930112838745117 5.261222839355469 4.930112838745117 5.669631958007812 L 4.930112838745117 7.148662567138672 C 4.930112838745117 8.371973037719727 3.934873580932617 9.367222785949707 2.711563110351562 9.367222785949707 C 2.031942367553711 9.367222785949707 1.479032516479492 9.920132637023926 1.479032516479492 10.5997428894043 C 1.479032516479492 11.27936267852783 2.031942367553711 11.83227252960205 2.711563110351562 11.83227252960205 L 4.621982574462891 11.83227252960205 C 6.2884521484375 11.31210327148438 7.444473266601562 9.749102592468262 7.444473266601562 7.996593475341797 L 7.444473266601562 5.17662239074707 C 7.444473266601562 2.322233200073242 9.766702651977539 1.9073486328125e-06 12.62109279632568 1.9073486328125e-06 Z M 16.31868362426758 6.902162551879883 L 16.31868362426758 5.17662239074707 C 16.31868362426758 3.137773513793945 14.65994262695312 1.479032516479492 12.62109279632568 1.479032516479492 C 10.58224296569824 1.479032516479492 8.923501968383789 3.137773513793945 8.923501968383789 5.17662239074707 L 8.923501968383789 6.902162551879883 L 16.31868362426758 6.902162551879883 Z M 18.04422378540039 23.76315307617188 C 18.99568176269531 23.76315307617188 19.76975250244141 22.98907279968262 19.76975250244141 22.03761291503906 L 19.76975250244141 13.09990310668945 C 18.84023284912109 12.72921276092529 18.03800201416016 12.11699295043945 17.42731285095215 11.30736255645752 C 16.77964401245117 10.4487829208374 16.4046630859375 9.444023132324219 16.3317928314209 8.381193161010742 L 8.910392761230469 8.381193161010742 C 8.837522506713867 9.444023132324219 8.462491989135742 10.4487829208374 7.814872741699219 11.30736255645752 C 7.204183578491211 12.11694240570068 6.401952743530273 12.72916316986084 5.472423553466797 13.09990310668945 L 5.472423553466797 22.03761291503906 C 5.472423553466797 22.98907279968262 6.246501922607422 23.76315307617188 7.197963714599609 23.76315307617188 L 18.04422378540039 23.76315307617188 Z" stroke="none" fill="#ccac64"/>
  </g>
</svg>
