<svg xmlns="http://www.w3.org/2000/svg" width="26.259" height="24.448" viewBox="0 0 26.259 24.448">
  <path id="Path_143" data-name="Path 143" d="M26.227,25.207a3.03,3.03,0,0,0-2.594-2.537v-.778A3.815,3.815,0,0,0,19.912,18a3.833,3.833,0,0,0-3.72,3.778h.025l-.025,0v8.434A4.751,4.751,0,0,1,11.6,35.1,4.753,4.753,0,0,1,7,30.214v-.731c.635,0,1.313-.45,1.313-1.712V26.7a6.1,6.1,0,0,0,4.814-5.735v-.892h-.875l-.018-5.57a2.156,2.156,0,0,0-1.8-2.095,1.312,1.312,0,0,0-1.647-.818,1.271,1.271,0,0,0-.836,1.61,1.312,1.312,0,0,0,1.647.818,1.3,1.3,0,0,0,.806-.738,1.289,1.289,0,0,1,.954,1.225l.02,5.568H10.5v.9a3.417,3.417,0,0,1-2.519,3.193,4.065,4.065,0,0,1-2.407,0,3.415,3.415,0,0,1-2.514-3.193v-.9H1.751V14.5a1.289,1.289,0,0,1,.972-1.234A1.329,1.329,0,0,0,4.432,14a1.281,1.281,0,0,0,.745-1.672,1.329,1.329,0,0,0-1.71-.729,1.3,1.3,0,0,0-.773.8,2.154,2.154,0,0,0-1.82,2.1v5.564H0v.89A6.1,6.1,0,0,0,4.814,26.7v1.076c0,1.262.678,1.712,1.313,1.712v.731a5.617,5.617,0,0,0,5.47,5.742,5.619,5.619,0,0,0,5.47-5.742V21.8a2.959,2.959,0,0,1,2.845-2.946,2.95,2.95,0,0,1,2.845,3.039v.777a3.007,3.007,0,0,0-2.594,3.393,3.053,3.053,0,0,0,3.47,2.537A3.007,3.007,0,0,0,26.227,25.207ZM9.19,13.22a.428.428,0,1,1,.438-.428A.433.433,0,0,1,9.19,13.22Zm-5.252-.856a.428.428,0,1,1-.438.428A.433.433,0,0,1,3.939,12.364ZM.875,20.958v-.034H2.188v.049A4.268,4.268,0,0,0,5.312,24.98a4.975,4.975,0,0,0,2.94,0,4.269,4.269,0,0,0,3.126-4.007v-.049h.875v.034A5.285,5.285,0,0,1,7.79,25.941a6.381,6.381,0,0,1-1.846.089,5.837,5.837,0,0,1-.6-.089A5.284,5.284,0,0,1,.875,20.958Zm5.252,7.669c-.394,0-.438-.6-.438-.856v-.908c.035,0,.071.006.106.009l.131.012c.207.018.416.03.626.03h.022c.21,0,.418-.012.624-.03l.135-.012c.035,0,.07-.005.105-.009v.908c0,.257-.044.856-.438.856Zm17.068-.856a2.14,2.14,0,1,1,2.188-2.14A2.164,2.164,0,0,1,23.195,27.772Z" transform="translate(0 -11.508)" fill="#fff"/>
</svg>
